<?xml version="1.0" encoding="UTF-8"?>
<svg width="41px" height="53px" viewBox="0 0 41 53" version="1.1" xmlns="http://www.w3.org/2000/svg" xmlns:xlink="http://www.w3.org/1999/xlink">
   <title>Passaro</title>
    <g id="Page-1" stroke="none" stroke-width="1" fill="none" fill-rule="evenodd">
        <g id="Galeria" transform="translate(-191.000000, -486.000000)" fill="#EEEEEE" fill-rule="nonzero">
            <g id="Group-8" transform="translate(185.000000, 486.000000)">
                <path d="M38.6914114,14.0658517 C39.7520822,13.1281282 40.3413439,11.7576093 40.8716793,10.3149579 C41.2841624,9.16083672 41.5787932,7.93458298 41.9912763,6.78046182 C42.9930211,3.96729149 44.8197321,1.44265145 47,0 C46.9410738,0.432795435 46.8821477,0.721325726 46.8232215,1.00985602 C46.1161076,3.75089377 45.8214768,6.49193153 45.6446983,9.37723443 C45.5857721,11.0362836 45.2911413,12.6953328 44.7018797,14.2101168 C44.053692,15.869166 43.1697996,17.2396848 41.873424,18.1774083 C40.8716793,18.898734 39.9288607,19.90859 39.3985253,21.2069763 C39.1038945,21.8561695 38.927116,22.6496278 38.6324852,23.5873512 C39.5753038,23.8037489 40.2824177,23.9480141 41.0484578,24.0922792 C42.7573164,24.5250747 44.1126181,25.3906655 44.5840274,27.7710404 C44.7018797,28.348101 45.2322152,28.853029 45.526846,29.357957 C42.2859072,29.5022222 39.1628206,29.9350176 36.2165126,32.1711274 C36.5111434,32.7481879 36.6289957,33.1809834 36.9236265,33.5416462 C37.9253713,35.2006954 38.1021497,36.9318772 37.3361097,38.7351915 C36.6289957,40.3942406 35.8629556,42.1254224 34.8612109,43.5680738 C32.2684598,47.4632327 28.9685949,50.1321379 25.3740991,52.3682477 C25.2562467,52.4403803 25.1383944,52.3682477 24.9026898,52.4403803 C25.4919514,50.4928008 26.5526223,49.0501493 27.7311455,47.751763 C28.673964,46.741907 29.5578565,45.5877859 30.0292657,44.0730018 C30.0881919,43.8566041 30.1471181,43.6402064 30.1471181,43.4238087 C29.1453733,44.722195 28.1436286,45.9484487 27.1418839,47.1747025 C26.8472531,47.5353653 26.4347699,47.751763 25.8455083,48.1845585 C26.9061792,44.9385927 27.7900716,42.0532898 28.7328902,39.1679869 C28.673964,39.0958543 28.5561117,39.0237218 28.4971856,39.0237218 C27.7900716,40.3221081 27.0829577,41.5483618 26.3758438,42.8467481 C25.6098037,41.0434338 25.727656,39.8893126 26.8472531,35.9220211 C26.3169176,36.787612 25.7865822,37.6532029 25.2562467,38.4466612 C24.5491328,37.0040097 24.6669851,35.7056234 26.081213,32.6760554 C25.6687299,32.9645857 25.3740991,33.1809834 25.1973206,33.3252485 C24.9616159,33.5416462 24.7848374,33.758044 24.5491328,33.9744417 C24.1955758,32.8924531 24.1955758,32.8924531 24.8437636,29.0694267 C23.900945,28.4923662 22.8402741,28.4202336 21.8385294,28.6366313 C20.0707446,28.9251616 18.3029598,29.2858245 16.535175,29.7186199 C14.0013501,30.3678131 11.4675251,31.1612713 8.9926264,31.8104645 C8.87477408,31.8104645 8.81584792,31.8825971 8.6979956,31.8825971 C7.10698926,32.2432599 6.63557998,31.8825971 6.28202301,30.0071502 C6.16417069,29.4300896 6.16417069,28.9251616 6.04631837,28.1317033 C8.16766015,27.7710404 10.1711496,27.338245 12.1746391,26.9775821 C12.1746391,26.9054496 12.1746391,26.833317 12.1746391,26.6890518 C10.1711496,26.7611844 8.16766015,26.9054496 6.04631837,27.0497147 C5.86953989,25.4627981 6.22309685,24.1644118 6.69450614,22.7217604 C8.52121712,23.0102906 10.3479281,23.3709535 12.1157129,23.6594838 C12.1157129,23.5873512 12.1157129,23.5152187 12.1746391,23.4430861 C10.5247066,22.9381581 8.81584792,22.3610975 7.16591542,21.8561695 C7.69625087,19.7643249 8.16766015,19.5479272 9.75866649,20.1249877 C12.9406792,21.2791089 16.0637657,22.4332301 19.2457783,23.5152187 C21.0135632,24.0922792 22.8992003,24.0922792 24.7259113,23.5152187 C26.1401391,23.0824232 26.2579915,22.7938929 26.3169176,20.9905786 C26.3758438,19.1151317 26.6115484,17.3118174 27.4954408,15.7249008 C27.554367,15.5806357 27.6722193,15.4363705 27.7900716,15.364238 C27.7900716,15.364238 27.8489978,15.364238 28.0257763,15.364238 C28.2025548,16.3019614 28.3204071,17.1675523 28.4971856,18.1052757 C28.9685949,15.4363705 29.5578565,12.9838631 31.8559767,11.6133442 C31.8559767,13.1281282 31.8559767,14.5707797 31.8559767,15.9412985 C32.2684598,12.2625373 33.80054,9.66576472 36.9236265,8.22311327 C36.4522172,9.30510186 36.0397341,10.0985602 35.7451033,11.0362836 C35.4504725,11.974007 35.273694,12.9838631 35.2147679,14.0658517 C36.4522172,9.7378973 38.6324852,6.34766639 41.8144979,4.03942406 C41.5198671,5.33781037 39.7520822,11.469079 38.6914114,14.0658517 Z" id="Shape" transform="translate(26.500000, 26.220190) rotate(-180.000000) translate(-26.500000, -26.220190) "></path>
            </g>
        </g>
    </g>
</svg>