<?xml version="1.0" encoding="UTF-8"?>
<svg width="33px" height="24px" viewBox="0 0 33 24" version="1.1" xmlns="http://www.w3.org/2000/svg" xmlns:xlink="http://www.w3.org/1999/xlink">
    <!-- Generator: Sketch 49 (51002) - http://www.bohemiancoding.com/sketch -->
    <title>Shape</title>
    <desc>Created with Sketch.</desc>
    <defs></defs>
    <g id="Page-1" stroke="none" stroke-width="1" fill="none" fill-rule="evenodd">
        <g id="Home" transform="translate(-704.000000, -969.000000)" fill="#000000" fill-rule="nonzero">
            <g id="Group-3" transform="translate(647.000000, 912.000000)">
                <path d="M72.587889,63.5046257 C72.8603869,63.9587889 73.1328848,64.4129521 73.3599664,64.8671152 C72.9512195,63.0504626 72.7241379,61.2338099 73.5870479,59.2809083 C73.9049622,60.1892347 74.1320437,60.961312 74.4045416,61.6879731 C74.2682927,59.6442389 74.2228764,57.6913373 75.8578638,55.9201009 C75.9486964,57.2371741 76.039529,58.4179983 76.1303616,59.5988225 C76.175778,59.5988225 76.175778,59.5988225 76.2211943,59.5988225 C76.4028595,58.4179983 76.5391085,57.2371741 76.8570227,56.1017662 C77.2203532,54.8755257 78.0378469,53.9671993 79.5820017,53.5130362 C78.8553406,55.1934399 78.1286796,56.6921783 78.1286796,58.4634146 C78.764508,57.1917578 79.2640875,55.9655172 79.9453322,54.8755257 C80.626577,53.7401177 81.6257359,52.8772077 83.1698907,52.7409588 C82.9882254,53.1042893 82.8519765,53.3313709 82.7157275,53.5584525 C81.4440706,55.8292683 80.7174096,58.3271657 80.3540791,60.8704794 C80.1269975,62.2783852 80.0815812,63.686291 80.0815812,65.0941968 C80.0815812,66.1841884 80.490328,66.5475189 81.5349033,66.8200168 C82.0344828,66.9562658 82.5340622,67.0016821 83.0336417,67.1833474 C83.8965517,67.4558452 84.4869638,68.000841 84.7140454,68.9091674 C84.8957107,69.5449958 85.0319596,70.1354079 85.2590412,70.9529016 C84.0328007,70.1808242 82.8519765,70.4079058 81.6711522,70.6349874 C80.7174096,70.8166526 80.0361648,71.3162321 79.9907485,72.3153911 C79.9453322,74.1774601 79.8544996,76.039529 79.9907485,77.8561817 C80.1724138,80.3086627 80.8990749,82.7157275 81.9436501,84.941127 C81.9890664,85.0319596 81.9890664,85.1682086 82.0344828,85.2590412 C80.3540791,85.0773759 79.1278385,83.3515559 77.901598,79.8999159 C78.0378469,80.5811606 78.1286796,81.3078217 78.3557611,81.9436501 C78.5374264,82.6248949 78.8099243,83.3061396 79.1278385,84.1236333 C77.765349,83.7148865 76.8116064,82.9428091 76.4482759,81.7165685 C76.1303616,80.5811606 75.9941127,79.4003364 75.8124474,78.0832632 C75.6761985,79.2186712 75.5853659,80.2632464 75.4945332,81.2624054 C74.1320437,80.7174096 73.8141295,79.3549201 74.0866274,76.1303616 C73.8141295,76.6299411 73.5870479,77.1749369 73.2237174,77.8561817 C72.587889,75.9941127 72.9966358,74.4499579 73.450799,72.7695542 C73.1783011,73.0874685 72.9512195,73.450799 72.6787216,73.7687132 C72.6333053,73.7687132 72.5424727,73.7232969 72.4970563,73.7232969 C72.4970563,73.2691337 72.4970563,72.8149706 72.4970563,72.3608074 C72.45164,71.9066442 72.45164,71.4978974 72.3153911,71.0891505 C72.1337258,70.3624895 71.9066442,70.1354079 71.1799832,70.1808242 C69.8174937,70.2262405 68.5004205,70.3170732 67.1833474,70.4987384 C65.412111,70.6804037 63.686291,70.9983179 61.9150547,71.2253995 C61.3700589,70.7712363 61.4154752,70.1354079 61.2792262,69.3633305 C63.0050463,69.2270816 64.6400336,69.0908326 66.275021,68.9545837 C66.275021,68.9091674 66.275021,68.8637511 66.275021,68.8637511 C64.6400336,68.7729184 62.9596299,68.6820858 61.2792262,68.5912532 C61.2792262,68.2279226 61.2338099,68.000841 61.2792262,67.7737595 C61.4154752,66.7746005 61.6425568,66.6383516 62.687132,66.7746005 C65.0487805,67.0925147 67.4104289,67.5012616 69.8174937,67.3650126 C70.3170732,67.3195963 70.8166526,67.27418 71.3162321,67.1833474 C72.1337258,67.0470984 72.2699748,66.9108495 72.3153911,66.0479394 C72.4062237,65.1850294 72.45164,64.3221194 72.4970563,63.5046257 C72.4970563,63.5500421 72.5424727,63.5500421 72.587889,63.5046257 Z" id="Shape" transform="translate(73.259041, 69.000000) rotate(-270.000000) translate(-73.259041, -69.000000) "></path>
            </g>
        </g>
    </g>
</svg>