<?xml version="1.0" encoding="UTF-8"?>
<svg width="88px" height="70px" viewBox="0 0 88 70" version="1.1" xmlns="http://www.w3.org/2000/svg" xmlns:xlink="http://www.w3.org/1999/xlink">
    <title>Galeria</title>
    <g id="Page-1" stroke="none" stroke-width="1" fill="none" fill-rule="evenodd">
        <g id="noun_Camera_2049741" transform="translate(0.000000, -1.000000)" fill="#000000" fill-rule="nonzero">
            <g id="Group" transform="translate(0.000000, 0.637820)">
                <path d="M33,0.36218 C29.697433,0.36218 27,3.44061 27,7.36218 L27,9.36218 L5,9.36218 C3.3629804,9.36618 1.9527783,10.30053 1.15625,11.45593 C0.3597217,12.61133 0,13.98163 0,15.36218 L0,64.36218 C0,66.31708 0.70914,67.88783 1.71875,68.89343 C2.72836,69.89913 3.8673283,70.36218 5,70.36218 C31,70.36218 57,70.36218 83,70.36218 C84.132672,70.36218 85.27164,69.89913 86.28125,68.89343 C87.29086,67.88783 88,66.31708 88,64.36218 L88,51.36218 C88.01494,50.305555 87.056731,49.333696 86,49.333696 C84.943269,49.333696 83.985057,50.305555 84,51.36218 L84,64.36218 C84,65.45348 83.702444,65.84813 83.46875,66.08093 C83.235056,66.31363 82.894114,66.36218 83,66.36218 C57,66.36218 31,66.36218 5,66.36218 C5.105886,66.36218 4.764944,66.31313 4.53125,66.08093 C4.297556,65.84813 4,65.45348 4,64.36218 L4,15.36218 C4,14.71196 4.20594,14.07307 4.4375,13.73718 C4.66906,13.40129 4.749372,13.36272 5,13.36218 L29,13.36218 C30.047169,13.362075 30.999895,12.409349 31,11.36218 L31,7.36218 C31,5.19145 32.302567,4.36218 33,4.36218 C40.333333,4.36218 47.666667,4.36218 55,4.36218 C55.697433,4.36218 57,5.19145 57,7.36218 L57,11.36218 C57.000105,12.409349 57.952831,13.362075 59,13.36218 L83,13.36218 C83.248345,13.36218 83.3309,13.40098 83.5625,13.73718 C83.7941,14.07336 84,14.71196 84,15.36218 L84,43.36218 C83.98506,44.418805 84.943269,45.390664 86,45.390664 C87.056731,45.390664 88.014943,44.418805 88,43.36218 L88,15.36218 C88,13.98163 87.640238,12.61206 86.84375,11.45593 C86.047262,10.2998 84.639303,9.36218 83,9.36218 L61,9.36218 L61,7.36218 C61,3.44061 58.302567,0.36218 55,0.36218 C47.666667,0.36218 40.333333,0.36218 33,0.36218 Z M74,18.36218 C71.814551,18.36218 70,20.17673 70,22.36218 C70,24.54763 71.814551,26.36218 74,26.36218 C76.185449,26.36218 78,24.54763 78,22.36218 C78,20.17673 76.185449,18.36218 74,18.36218 Z M44,20.39343 C33.530279,20.39343 25.03125,28.89244 25.03125,39.36218 C25.03125,49.83188 33.530279,58.33093 44,58.33093 C54.469721,58.33093 62.96875,49.83188 62.96875,39.36218 C62.96875,28.89244 54.469721,20.39343 44,20.39343 Z M44,24.33093 C52.30796,24.33093 59.03125,31.0542 59.03125,39.36218 C59.03125,47.67008 52.30796,54.39343 44,54.39343 C35.69204,54.39343 28.96875,47.67008 28.96875,39.36218 C28.96875,31.0542 35.69204,24.33093 44,24.33093 Z M43.8125,28.36218 C42.810692,28.473257 41.982348,29.443309 42.029543,30.450151 C42.076739,31.456993 42.992194,32.345303 44,32.36218 C47.889682,32.36218 51,35.47248 51,39.36218 C51.07869,40.356743 52.002329,41.210198 53,41.210198 C53.997671,41.210198 54.921314,40.356743 55,39.36218 C55,33.31068 50.051442,28.36218 44,28.36218 C43.93755,28.35928 43.874954,28.35928 43.8125,28.36218 Z" id="Shape"></path>
            </g>
        </g>
    </g>
</svg>