<?xml version="1.0" encoding="UTF-8"?>
<svg width="167px" height="120px" viewBox="0 0 167 120" version="1.1" xmlns="http://www.w3.org/2000/svg" xmlns:xlink="http://www.w3.org/1999/xlink">
    <!-- Generator: Sketch 49 (51002) - http://www.bohemiancoding.com/sketch -->
    <title>cialogo</title>
    <desc>Created with Sketch.</desc>
    <defs></defs>
    <g id="Page-1" stroke="none" stroke-width="1" fill="none" fill-rule="evenodd">
        <g id="SCENE-2" transform="translate(-305.000000, -419.000000)" fill="#EEEEEE" fill-rule="nonzero">
            <g id="cialogo" transform="translate(305.000000, 419.000000)">
                <g id="Group" transform="translate(0.000000, 15.319149)">
                    <path d="M27.9829787,5.25957447 C28.0340426,5.92340426 28.1361702,6.53617021 28.187234,7.14893617 C28.4425532,12.5617021 29.3617021,18.587234 29.9234043,24.306383 C30.4340426,29.2595745 30.6382979,31.7106383 31.1489362,36.6638298 C31.2,37.3787234 31.3021277,38.0425532 31.3531915,38.7574468 C31.506383,40.3914894 32.1191489,46.5702128 32.2723404,48.2553191 C32.3234043,48.9702128 32.3744681,49.787234 32.4255319,50.5021277 C32.4255319,51.012766 32.4765957,51.4723404 32.4765957,51.8808511 C32.4765957,51.8808511 32.4765957,51.8808511 32.4765957,51.9319149 C32.4765957,51.9319149 32.4765957,51.9829787 32.4255319,52.0851064 C32.4255319,52.0851064 32.4255319,52.0851064 32.4255319,52.1361702 C32.4255319,52.1361702 32.4255319,52.187234 32.4255319,52.2893617 C32.3744681,52.2893617 32.3744681,52.2893617 32.3744681,52.3914894 C32.3234043,52.4425532 32.3234043,52.4425532 32.3234043,52.493617 C32.3234043,52.5446809 32.2723404,52.5957447 32.2723404,52.5957447 C32.2212766,52.6978723 32.2212766,52.6978723 32.1191489,52.6978723 C32.1191489,52.7489362 32.0680851,52.8 32.0680851,52.8 C32.0170213,52.8 32.0170213,52.8 32.0170213,52.8 C31.9659574,52.9021277 31.8638298,52.9021277 31.8638298,52.9021277 C31.812766,52.9021277 31.812766,52.9021277 31.812766,52.9021277 C31.7617021,52.9021277 31.7617021,52.9021277 31.6595745,52.9021277 C31.4042553,52.9531915 31.2510638,52.9531915 30.9957447,52.9531915 C28.9531915,53.1574468 26.8595745,53.412766 24.7659574,53.6680851 C24.612766,53.6680851 24,53.8212766 23.693617,53.3617021 C23.693617,53.3106383 23.693617,53.3106383 23.693617,53.3106383 C23.5914894,53.2595745 23.5914894,53.2595745 23.5914894,53.1574468 C23.5914894,53.106383 23.5914894,53.0042553 23.4893617,52.9531915 C23.4893617,52.9531915 23.4893617,52.9531915 23.4893617,52.9021277 C23.4893617,52.9021277 23.4893617,52.8510638 23.4893617,52.7489362 C22.9787234,47.8978723 22.3659574,43.0978723 21.7531915,38.2978723 C21.7531915,38.1446809 21.6,38.093617 21.4978723,38.093617 C18.7404255,38.4 17.3617021,38.5531915 14.6042553,38.9106383 C14.5531915,38.9106383 14.4510638,38.9106383 14.4,39.012766 C14.4,39.012766 14.3489362,39.1148936 14.3489362,39.1659574 C14.4510638,39.7787234 14.5021277,40.1361702 14.5531915,40.7489362 C14.6553191,41.4638298 15.3702128,46.4680851 15.4723404,47.2340426 C15.6255319,48.306383 15.7787234,49.3276596 15.8808511,50.2978723 C15.9829787,51.012766 16.0340426,51.8297872 16.1361702,52.5446809 C16.1361702,53.0553191 16.187234,53.4638298 16.2382979,53.9234043 C16.187234,53.9234043 16.187234,53.9234043 16.187234,53.9234043 C16.187234,53.9744681 16.187234,54.0765957 16.2382979,54.1276596 C16.2382979,54.1276596 16.2382979,54.1276596 16.2382979,54.1787234 C16.2382979,54.1787234 16.2382979,54.2297872 16.187234,54.3319149 C16.187234,54.3319149 16.187234,54.3319149 16.187234,54.3829787 C16.1361702,54.3829787 16.1361702,54.4851064 16.1361702,54.4851064 C16.0851064,54.587234 16.0851064,54.587234 15.9829787,54.587234 C15.9829787,54.6382979 15.9319149,54.6893617 15.9319149,54.6893617 C15.8808511,54.7914894 15.8808511,54.7914894 15.7787234,54.7914894 C15.7787234,54.7914894 15.7787234,54.7914894 15.7276596,54.7914894 C15.7276596,54.8425532 15.6765957,54.893617 15.6765957,54.893617 C15.6255319,54.893617 15.6255319,54.893617 15.6255319,54.893617 C15.5744681,54.893617 15.4723404,54.893617 15.4723404,54.893617 C15.2170213,54.9446809 15.0638298,54.9446809 14.8085106,54.9957447 C12.7659574,55.3021277 10.6212766,55.6085106 8.5787234,55.9148936 C8.52765957,55.9148936 8.52765957,55.9148936 8.42553191,55.9148936 C8.2212766,55.9659574 7.7106383,56.0170213 7.50638298,55.6085106 C7.40425532,55.4553191 7.30212766,55.3531915 7.30212766,55.2 C7.30212766,55.1489362 7.30212766,55.1489362 7.30212766,55.1489362 C7.30212766,55.1489362 7.30212766,55.0978723 7.30212766,54.9957447 C6.84255319,52.1361702 5.77021277,44.9361702 5.36170213,42.1787234 C5.10638298,40.3404255 4.74893617,38.4510638 4.44255319,36.5106383 C4.13617021,34.4170213 3.7787234,32.2723404 3.4212766,30.1276596 C3.26808511,29.0042553 3.16595745,28.4425532 2.96170213,27.3191489 C2.96170213,27.2680851 2.96170213,27.2680851 2.96170213,27.2680851 C2.85957447,26.706383 1.8893617,20.0170213 0.919148936,13.9914894 C0.868085106,13.5829787 0.765957447,13.1234043 0.714893617,12.7148936 C0.714893617,12.6638298 0.714893617,12.612766 0.714893617,12.5617021 C0.663829787,12.2042553 0.612765957,11.8468085 0.510638298,11.4382979 C0.510638298,11.2851064 0.510638298,11.2340426 0.510638298,11.0808511 C0.357446809,10.212766 0.204255319,9.29361702 0.10212766,8.42553191 C0.10212766,8.37446809 0.10212766,8.27234043 0.0510638298,8.2212766 C0.0510638298,8.17021277 0.0510638298,8.17021277 0.0510638298,8.17021277 C0.0510638298,8.11914894 0.0510638298,8.01702128 0.10212766,7.96595745 C0.10212766,7.91489362 0.10212766,7.81276596 0.153191489,7.81276596 C0.153191489,7.76170213 0.153191489,7.76170213 0.153191489,7.76170213 C0.153191489,7.7106383 0.204255319,7.65957447 0.204255319,7.60851064 C0.306382979,7.60851064 0.255319149,7.50638298 0.255319149,7.50638298 C0.357446809,7.50638298 0.306382979,7.40425532 0.408510638,7.40425532 C0.408510638,7.35319149 0.408510638,7.35319149 0.459574468,7.30212766 C0.459574468,7.30212766 0.510638298,7.2 0.612765957,7.2 C0.612765957,7.2 0.612765957,7.2 0.714893617,7.2 C0.714893617,7.14893617 0.765957447,7.09787234 0.868085106,7.09787234 C0.919148936,7.09787234 0.919148936,7.09787234 0.970212766,7.09787234 C1.07234043,7.09787234 1.07234043,7.09787234 1.12340426,7.09787234 C1.17446809,7.09787234 1.17446809,7.09787234 1.22553191,7.09787234 C3.21702128,6.79148936 5.10638298,6.48510638 7.09787234,6.12765957 C7.7106383,6.02553191 8.06808511,5.97446809 8.68085106,5.92340426 C8.68085106,5.92340426 8.68085106,5.92340426 8.78297872,5.92340426 C8.88510638,5.92340426 8.93617021,5.92340426 9.03829787,5.97446809 C9.29361702,5.92340426 9.44680851,5.97446809 9.6,6.12765957 C9.70212766,6.1787234 9.70212766,6.28085106 9.80425532,6.33191489 C9.90638298,6.38297872 9.90638298,6.48510638 9.90638298,6.53617021 C9.90638298,6.53617021 10.0085106,6.53617021 10.0085106,6.58723404 C10.0085106,6.63829787 10.0085106,6.74042553 10.0595745,6.79148936 C10.1106383,7.09787234 10.1106383,7.30212766 10.2638298,7.55744681 C10.3659574,8.11914894 10.4170213,8.78297872 10.5191489,9.44680851 C10.5191489,9.49787234 10.5191489,9.54893617 10.5191489,9.6 C11.3361702,15.6255319 12.0510638,21.7021277 12.8680851,27.7276596 C12.9702128,28.5446809 13.0212766,28.9531915 13.1234043,29.7191489 C13.1234043,29.8723404 13.3276596,29.9744681 13.3787234,29.9744681 C14.1957447,29.8723404 15.1148936,29.7191489 15.8297872,29.6680851 C16.1361702,29.6170213 16.4425532,29.5659574 16.6468085,29.5659574 C16.7489362,29.6170213 16.9021277,29.6170213 16.9531915,29.6170213 C18.3319149,29.412766 18.9957447,29.3617021 20.3744681,29.1574468 C20.4255319,29.1574468 20.5276596,29.0553191 20.5787234,29.0042553 C20.3744681,27.4723404 20.2723404,26.6553191 20.1191489,25.1234043 C20.1191489,25.0723404 20.1191489,25.0723404 20.1191489,25.0723404 C20.0680851,24.5106383 19.3021277,17.8212766 18.5361702,11.7446809 C18.4340426,10.7234043 18.3829787,9.70212766 18.2297872,8.78297872 C18.1787234,8.27234043 18.1276596,7.76170213 18.0255319,7.25106383 C17.9744681,6.89361702 17.9234043,6.48510638 17.8723404,6.07659574 C17.8723404,6.02553191 17.8723404,5.92340426 17.8212766,5.87234043 C17.8212766,5.8212766 17.8212766,5.8212766 17.8212766,5.8212766 C17.8723404,5.71914894 17.8723404,5.66808511 17.8723404,5.61702128 C17.8723404,5.56595745 17.9234043,5.46382979 17.9234043,5.46382979 C17.9234043,5.41276596 17.9234043,5.41276596 17.9234043,5.41276596 C17.9744681,5.3106383 17.9744681,5.3106383 18.0765957,5.25957447 C18.0765957,5.20851064 18.0765957,5.20851064 18.0765957,5.20851064 C18.1787234,5.20851064 18.1276596,5.10638298 18.2297872,5.10638298 C18.2297872,5.05531915 18.2808511,5.00425532 18.2808511,5.00425532 C18.3829787,5.00425532 18.3319149,4.90212766 18.4340426,4.90212766 C18.4851064,4.90212766 18.4851064,4.90212766 18.5361702,4.90212766 C18.587234,4.8 18.587234,4.8 18.6893617,4.8 C18.7914894,4.8 18.7914894,4.8 18.8425532,4.8 C18.893617,4.8 18.893617,4.8 18.9446809,4.8 C19.0468085,4.8 19.0468085,4.8 19.0468085,4.8 C21.0382979,4.54468085 22.9276596,4.34042553 24.9191489,4.03404255 C25.5319149,3.98297872 25.8893617,3.93191489 26.5021277,3.88085106 C26.5531915,3.88085106 26.5531915,3.88085106 26.6042553,3.88085106 C26.7574468,3.88085106 26.8595745,3.82978723 26.9106383,3.93191489 C27.0638298,3.93191489 27.2170213,3.98297872 27.4212766,4.08510638 C27.4212766,4.08510638 27.4212766,4.08510638 27.5234043,4.08510638 C27.5234043,4.13617021 27.6255319,4.23829787 27.6255319,4.2893617 C27.6765957,4.2893617 27.6765957,4.2893617 27.7276596,4.2893617 C27.7276596,4.34042553 27.7276596,4.44255319 27.8297872,4.49361702 C27.8297872,4.49361702 27.8297872,4.49361702 27.8297872,4.54468085 C27.8297872,4.59574468 27.8297872,4.69787234 27.8297872,4.74893617 C27.8808511,4.74893617 27.9829787,4.95319149 27.9829787,5.25957447 Z" id="Shape"></path>
                    <path d="M54.2808511,9.95744681 C55.0978723,14.8595745 55.506383,19.8638298 55.6595745,24.7659574 C55.7106383,27.012766 55.812766,29.3617021 55.9659574,31.6595745 C56.1191489,33.6 56.1702128,35.693617 56.2723404,38.0425532 C56.3234043,40.2382979 56.3744681,42.587234 55.8638298,44.987234 C55.0978723,48.1531915 53.106383,50.2978723 49.9404255,51.3191489 C48.7148936,51.6765957 47.4893617,51.9319149 46.2638298,52.0340426 C45.2425532,52.1361702 44.2212766,52.0340426 43.2,51.9829787 C39.7276596,51.6255319 37.2765957,49.6851064 36.0510638,46.3659574 C35.1319149,43.9659574 34.8255319,41.4638298 34.6212766,39.2170213 C34.4170213,37.1234043 34.1106383,34.0085106 33.9574468,32.7319149 C33.7531915,30.1787234 33.7021277,29.2085106 33.6510638,28.8510638 C33.5489362,27.8297872 33.4468085,26.8085106 33.3446809,25.8382979 C33.0893617,23.387234 32.7829787,20.9361702 32.6297872,18.4851064 C32.5276596,16.5446809 32.3744681,14.1957447 32.4255319,11.8978723 C32.6297872,9.0893617 33.4468085,6.89361702 35.0297872,5.10638298 C36.1531915,3.98297872 37.4297872,3.16595745 39.012766,2.65531915 C41.3617021,1.94042553 43.7617021,1.68510638 46.1106383,1.94042553 C48.8680851,2.24680851 51.012766,3.52340426 52.4425532,5.61702128 C53.3106383,6.74042553 53.9234043,8.2212766 54.2808511,9.95744681 Z M42.7404255,29.5148936 C42.893617,31.6085106 43.0468085,33.8042553 43.2510638,35.9489362 C43.506383,38.8595745 43.7617021,42.0765957 44.0680851,44.2212766 C44.1702128,44.8851064 44.5787234,45.3446809 45.3446809,45.4978723 C45.8553191,45.6510638 46.6723404,45.4468085 47.0808511,44.8340426 C47.2851064,44.3744681 47.4382979,43.8638298 47.4382979,43.4042553 C47.4382979,42.0765957 47.3361702,40.7489362 47.2340426,39.4212766 C47.2340426,39.1148936 47.1829787,39.012766 47.1829787,38.706383 C47.0808511,37.2765957 47.0297872,35.7957447 46.9276596,34.3659574 C46.6212766,30.2297872 46.3659574,26.0425532 46.0595745,21.906383 C45.8042553,18.4340426 45.4468085,14.9617021 45.1404255,11.6425532 C45.0382979,10.7234043 44.987234,10.2638298 44.8851064,9.34468085 C44.8340426,8.62978723 44.1702128,8.06808511 43.2,8.06808511 C42.3829787,7.96595745 41.6680851,8.47659574 41.5148936,9.14042553 C41.3106383,9.80425532 41.3106383,10.3148936 41.3617021,10.8765957 C41.5659574,13.5319149 41.8723404,17.5659574 42.0765957,20.7319149 C42.1787234,22.3659574 42.3319149,23.8468085 42.4340426,24.9191489 C42.3829787,25.4297872 42.4340426,25.8893617 42.4340426,26.1446809 C42.4340426,26.3489362 42.4851064,26.5021277 42.4851064,26.6553191 C42.587234,27.6765957 42.6382979,28.5446809 42.7404255,29.5148936 Z" id="Shape"></path>
                    <path d="M89.0042553,38.5531915 C89.0553191,41.7191489 89.0042553,45.0893617 89.0042553,48.4595745 C89.0042553,49.6340426 88.7489362,49.8893617 87.6255319,49.8893617 C85.4297872,49.9404255 83.387234,49.9404255 81.6,49.9404255 C81.1404255,49.9404255 80.7829787,49.9404255 80.5787234,49.7361702 C80.3744681,49.5319149 80.3744681,49.1744681 80.3744681,48.7148936 C80.3744681,45.8042553 80.2723404,42.7914894 80.3234043,39.9319149 C80.3234043,36.0510638 80.2212766,32.0170213 80.3234043,28.2382979 C80.3744681,27.1659574 80.3744681,25.9404255 80.2723404,24.612766 C79.9659574,27.1659574 79.6085106,29.6680851 79.3531915,32.2212766 C79.2,33.3957447 79.0978723,34.5702128 78.9957447,35.6425532 C78.893617,36.612766 78.7914894,37.6851064 78.6382979,38.6042553 C78.587234,39.6255319 78.4340426,40.6468085 78.2808511,41.5659574 C78.1276596,42.4851064 78.0255319,43.4553191 77.9234043,44.3744681 C77.7702128,45.906383 77.6170213,47.5404255 77.5659574,48.9702128 C77.5148936,49.5829787 77.2085106,49.9404255 76.5446809,49.9404255 C75.3191489,49.9404255 73.9914894,49.9914894 72.612766,50.093617 C72.5617021,50.093617 72.5617021,50.093617 72.5617021,50.093617 C72.0510638,50.093617 71.7446809,49.8382979 71.6425532,49.3276596 C71.4893617,48.6638298 71.387234,47.9489362 71.2340426,47.2851064 C71.0297872,46.5191489 70.8765957,45.6510638 70.7234043,44.8340426 C70.5191489,43.6085106 70.2638298,42.3829787 70.1106383,41.2085106 C70.0085106,40.6978723 69.9574468,40.187234 69.8553191,39.6765957 C69.7021277,38.9106383 69.6510638,38.5531915 69.4978723,37.787234 C69.2425532,36.2553191 68.9361702,34.7744681 68.6808511,33.2425532 C68.5787234,32.3744681 68.3744681,31.506383 68.2212766,30.6382979 C67.9659574,29.3106383 67.7617021,27.8297872 67.4553191,26.4 C67.3531915,25.8382979 67.2510638,25.2255319 67.0978723,24.7659574 C67.2,25.1744681 67.2,25.6340426 67.2,26.0425532 C67.3021277,29.5148936 67.4042553,33.6 67.6595745,37.6340426 C67.812766,39.8808511 67.9148936,42.1787234 68.0170213,44.2723404 C68.0680851,45.7531915 68.1702128,47.3361702 68.2212766,48.9191489 C68.2212766,49.4297872 68.2723404,49.787234 68.0170213,49.9914894 C67.812766,50.1957447 67.4553191,50.2468085 66.9446809,50.2468085 C66.3829787,50.2468085 65.7702128,50.2978723 65.106383,50.4 C64.0340426,50.4510638 62.9106383,50.5021277 61.8382979,50.5531915 C60.6638298,50.6042553 60.306383,50.2468085 60.2553191,49.1234043 C60.0510638,45.0893617 59.8468085,41.0553191 59.5914894,37.0212766 C59.1829787,30.2297872 58.7744681,23.387234 58.4170213,16.5957447 C58.2638298,13.4808511 58.1106383,10.212766 57.8553191,7.2 C57.7531915,5.77021277 57.6510638,4.2893617 57.5489362,2.80851064 C57.5489362,2.75744681 57.5489362,2.60425532 57.5489362,2.50212766 C57.4978723,1.32765957 57.7021277,1.12340426 58.9276596,1.07234043 C60.612766,0.970212766 62.2978723,0.868085106 64.0340426,0.765957447 C65.4638298,0.714893617 68.1702128,0.561702128 69.3957447,0.510638298 C69.7021277,0.510638298 70.0595745,0.714893617 70.212766,1.0212766 C71.4893617,5.46382979 72.1021277,7.7106383 73.3276596,12.2042553 C73.4297872,12.4085106 73.7361702,12.4085106 73.787234,12.2042553 C74.8085106,7.65957447 75.3191489,5.41276596 76.3404255,0.868085106 C76.493617,0.561702128 76.7489362,0.357446809 77.1574468,0.357446809 C77.8212766,0.357446809 78.9446809,0.357446809 79.5574468,0.306382979 C80.0170213,0.306382979 80.5276596,0.306382979 80.987234,0.306382979 C81.8042553,0.306382979 82.5191489,0.306382979 83.2851064,0.306382979 C84.7148936,0.255319149 86.1446809,0.255319149 87.6765957,0.255319149 C88.0851064,0.255319149 88.3914894,0.357446809 88.5446809,0.561702128 C88.8510638,0.765957447 88.8510638,1.22553191 88.8510638,1.42978723 C88.9021277,3.82978723 88.8510638,6.28085106 88.8510638,8.52765957 C88.8510638,10.3148936 88.9021277,12.2553191 88.9021277,14.0425532 C88.8510638,21.2425532 88.8510638,28.5446809 88.8510638,35.7957447 C89.0042553,36.9702128 89.0042553,37.4808511 89.0042553,38.5531915 Z" id="Shape"></path>
                    <path d="M112.493617,45.1404255 C112.442553,45.7021277 112.442553,46.212766 112.391489,46.8255319 C112.238298,47.8978723 112.187234,48.9702128 112.187234,50.093617 C112.187234,50.4510638 111.982979,50.7574468 111.829787,50.9617021 C111.523404,51.1659574 111.165957,51.1659574 110.961702,51.1148936 C104.987234,50.8085106 98.7574468,50.8085106 92.9361702,50.4510638 C91.9659574,50.4 91.9148936,49.5829787 91.9148936,49.2765957 C91.9659574,47.4893617 91.9659574,45.6510638 92.0170213,43.8638298 C92.0680851,42.0765957 92.0680851,40.2893617 92.1191489,38.5021277 C92.1702128,35.4382979 92.1191489,37.0723404 92.1702128,34.0085106 C92.1702128,32.5276596 92.2212766,31.812766 92.2212766,30.3319149 C92.2212766,27.012766 92.2723404,25.3276596 92.2723404,22.0085106 C92.3744681,15.5234043 92.4765957,8.98723404 92.5787234,2.50212766 C92.5787234,1.42978723 92.5787234,0.817021277 92.987234,0.561702128 C93.2425532,0.357446809 93.6510638,0.357446809 94.2638298,0.357446809 C94.5191489,0.357446809 94.7234043,0.357446809 94.9787234,0.357446809 C99.3191489,0.459574468 103.710638,0.663829787 107.948936,0.817021277 C109.276596,0.868085106 109.991489,0.919148936 111.319149,0.970212766 C111.625532,0.970212766 111.880851,1.07234043 112.13617,1.07234043 C112.391489,1.07234043 112.595745,1.07234043 112.851064,1.12340426 C113.565957,1.17446809 113.974468,1.53191489 113.923404,2.19574468 C113.821277,4.08510638 113.719149,5.87234043 113.617021,7.7106383 C113.617021,8.06808511 113.412766,8.27234043 113.259574,8.42553191 C113.106383,8.5787234 112.697872,8.62978723 112.544681,8.62978723 C111.370213,8.5787234 110.195745,8.52765957 108.970213,8.47659574 C106.92766,8.37446809 104.885106,8.32340426 102.791489,8.2212766 C102.485106,8.2212766 102.382979,8.2212766 102.382979,8.2212766 C102.382979,8.2212766 102.382979,8.27234043 102.382979,8.52765957 C102.229787,13.8382979 102.025532,19.0978723 101.87234,24.4085106 C101.87234,24.5617021 101.87234,24.612766 101.87234,24.612766 C101.87234,24.612766 101.974468,24.612766 102.178723,24.612766 C104.170213,24.6638298 106.161702,24.7659574 108.051064,24.8680851 C108.510638,24.8680851 108.714894,24.9191489 109.174468,24.9191489 C109.32766,24.9191489 109.378723,24.9191489 109.531915,24.9191489 C109.685106,24.9191489 109.73617,24.9191489 109.889362,24.9191489 C110.195745,24.9191489 110.4,25.0723404 110.655319,25.2255319 C110.808511,25.3787234 110.859574,25.6851064 110.859574,26.0425532 C110.859574,27.7787234 110.655319,31.0978723 110.604255,32.7829787 C110.604255,33.0893617 110.502128,33.293617 110.348936,33.4978723 C110.093617,33.7021277 109.73617,33.7021277 109.531915,33.6510638 C107.795745,33.5489362 106.978723,33.5489362 105.242553,33.4468085 C104.731915,33.4468085 104.27234,33.3957447 103.761702,33.3957447 C103.148936,33.3957447 102.382979,33.3446809 101.719149,33.3446809 C101.668085,33.3446809 101.565957,33.3446809 101.565957,33.3446809 C101.565957,33.3446809 101.565957,33.3957447 101.565957,33.4978723 C101.412766,38.706383 101.412766,38.6553191 101.259574,42.893617 C101.259574,42.9446809 101.259574,43.0468085 101.259574,43.0468085 C101.259574,43.0468085 101.310638,43.0468085 101.46383,43.0468085 C104.170213,43.1489362 107.234043,43.3531915 110.859574,43.506383 C112.340426,43.506383 112.544681,43.6595745 112.493617,45.1404255 Z" id="Shape"></path>
                    <path d="M141.446809,4.69787234 C141.293617,6.07659574 141.140426,7.50638298 140.987234,8.93617021 C140.834043,10.5191489 140.629787,12.1021277 140.476596,13.787234 C140.323404,14.8595745 140.27234,15.4212766 140.119149,16.493617 C139.455319,22.8765957 138.842553,29.3106383 138.076596,35.5914894 C137.617021,39.5744681 137.157447,43.7106383 136.646809,47.693617 C136.493617,49.0212766 136.442553,49.6851064 136.289362,51.012766 C136.13617,52.5446809 135.982979,52.7489362 134.451064,52.5446809 C133.991489,52.493617 133.531915,52.4425532 133.07234,52.3914894 C132.357447,52.3404255 131.693617,52.2382979 130.978723,52.187234 C130.978723,52.187234 130.978723,52.187234 130.92766,52.187234 C130.365957,52.1361702 130.008511,51.8297872 129.855319,51.1659574 C128.374468,45.3957447 126.12766,39.8297872 124.289362,34.1617021 C124.238298,34.0085106 124.187234,33.8042553 124.085106,33.6510638 C123.625532,39.2680851 123.114894,44.8851064 122.604255,50.5021277 C122.604255,50.706383 122.553191,51.012766 122.246809,51.2170213 C121.991489,51.4212766 121.73617,51.4723404 121.480851,51.4723404 C120.765957,51.4212766 120.051064,51.3702128 119.387234,51.3191489 C118.365957,51.1659574 117.293617,51.1148936 116.27234,51.012766 C115.251064,50.9617021 115.046809,50.6553191 115.097872,49.6851064 C115.251064,47.2851064 115.455319,44.9361702 115.608511,42.6893617 C115.710638,41.2085106 115.812766,39.6255319 115.914894,38.1446809 C116.017021,36.2553191 116.068085,35.3361702 116.221277,33.4468085 C116.629787,27.9829787 117.038298,22.5191489 117.395745,17.106383 C117.497872,15.3702128 117.6,13.6340426 117.702128,11.8978723 C117.804255,10.4680851 117.906383,8.98723404 117.957447,7.55744681 C118.008511,6.74042553 118.059574,6.02553191 118.110638,5.25957447 C118.161702,4.44255319 118.212766,3.57446809 118.26383,2.80851064 C118.314894,1.94042553 118.978723,1.78723404 119.438298,1.78723404 C120,1.83829787 120.255319,1.83829787 120.817021,1.8893617 C122.655319,1.94042553 124.493617,1.99148936 126.331915,2.14468085 C126.791489,2.19574468 127.251064,2.65531915 127.404255,3.01276596 C128.782979,7.76170213 130.314894,12.4595745 131.846809,17.2085106 C132.306383,12.2042553 132.561702,9.65106383 133.07234,4.64680851 C133.07234,4.49361702 133.123404,4.34042553 133.123404,4.23829787 C133.123404,4.03404255 133.225532,3.88085106 133.276596,3.67659574 C133.225532,3.37021277 133.378723,3.16595745 133.582979,3.06382979 C133.73617,2.9106383 133.991489,2.80851064 134.348936,2.85957447 C136.442553,3.06382979 138.485106,3.26808511 140.476596,3.47234043 C141.548936,3.47234043 141.446809,4.44255319 141.446809,4.69787234 Z" id="Shape"></path>
                    <path d="M163.710638,37.6851064 C163.965957,41.6170213 163.608511,43.9659574 162.280851,47.7957447 C161.208511,50.9106383 159.421277,53.0553191 156.919149,54.1787234 C155.744681,54.7404255 154.365957,55.0468085 152.834043,55.0468085 C151.965957,55.0468085 150.995745,54.9957447 149.974468,54.893617 C149.055319,54.7914894 148.034043,54.587234 146.961702,54.2808511 C143.131915,53.2595745 140.731915,50.2468085 140.425532,46.4170213 C140.221277,44.2212766 140.374468,42.2297872 140.731915,40.493617 C141.038298,39.0638298 141.293617,39.012766 142.774468,39.1148936 C142.978723,39.1659574 147.114894,39.6255319 147.778723,39.7276596 C147.982979,39.7787234 148.289362,39.7787234 148.493617,40.0340426 C148.697872,40.2893617 148.697872,40.6468085 148.595745,40.8510638 C148.238298,42.9957447 148.289362,44.987234 148.493617,45.8042553 C148.646809,46.4680851 149.004255,47.1319149 149.565957,47.387234 C150.178723,47.7446809 150.944681,47.8468085 151.608511,47.6425532 C152.323404,47.387234 152.834043,46.8765957 153.191489,45.9574468 C153.855319,44.0170213 154.008511,43.5574468 154.212766,40.8510638 C154.314894,39.1148936 154.008511,37.8893617 153.293617,36.9191489 C152.629787,36.1021277 151.914894,35.3361702 151.097872,34.6723404 C150.995745,34.5702128 150.995745,34.5191489 150.893617,34.4170213 C150.331915,33.906383 149.719149,33.3957447 149.106383,32.7829787 C148.187234,32.0170213 143.948936,27.0638298 143.438298,21.8042553 C143.131915,18.9446809 143.489362,16.0340426 144.306383,12.9191489 C145.07234,9.95744681 146.553191,7.76170213 148.748936,6.28085106 C150.229787,5.36170213 152.017021,4.90212766 154.110638,4.90212766 C155.693617,4.90212766 157.582979,5.00425532 159.47234,5.56595745 C163.404255,6.6893617 165.957447,9.70212766 166.110638,13.2765957 C166.212766,16.2382979 165.957447,18.0255319 165.293617,20.7829787 C165.242553,20.7829787 165.242553,20.8340426 165.191489,20.8340426 C164.93617,21.8042553 164.629787,21.906383 163.608511,21.8553191 C163.506383,21.8553191 163.455319,21.8553191 163.353191,21.8042553 C161.668085,21.5489362 159.931915,21.293617 158.246809,21.0382979 C157.787234,20.987234 157.480851,20.9361702 157.276596,20.6808511 C157.07234,20.4255319 157.123404,20.0680851 157.174468,19.6595745 C157.225532,19.3531915 157.225532,19.2510638 157.276596,18.9446809 C157.480851,17.412766 157.685106,14.6553191 157.582979,13.8893617 C157.480851,13.0212766 156.765957,12.306383 155.744681,12.2553191 C154.825532,12.1531915 153.753191,12.6638298 153.497872,13.4297872 C152.476596,15.7787234 152.374468,17.9744681 152.52766,20.1702128 C152.885106,24.6638298 156.408511,26.9106383 157.531915,27.7787234 C158.093617,28.2382979 158.655319,28.7489362 159.268085,29.2085106 C161.974468,31.4553191 163.506383,34.3659574 163.710638,37.6851064 Z" id="Shape"></path>
                </g>
                <g id="Group" transform="translate(1.531915, 72.000000)">
                    <path d="M21.6510638,18.6382979 C21.7531915,19.9659574 22.8765957,29.3106383 23.0808511,30.6382979 C23.3361702,32.5787234 23.4893617,34.6212766 23.5914894,36.5106383 C23.693617,38.4 23.5914894,40.0340426 23.0808511,41.4638298 C22.6212766,42.7914894 22.0085106,44.3234043 20.4765957,45.293617 C19.4553191,45.9574468 18.3319149,46.3659574 16.8,46.5702128 C15.0638298,46.8255319 13.2765957,47.0808511 11.5914894,47.3361702 C10.5191489,47.4893617 9.39574468,47.6425532 8.37446809,47.8468085 C8.11914894,47.8978723 7.91489362,47.8978723 7.65957447,47.9489362 C7.30212766,48 6.99574468,48.0510638 6.79148936,47.8978723 C6.53617021,47.693617 6.48510638,47.387234 6.38297872,47.0297872 C4.2893617,33.8553191 2.19574468,20.6808511 0.10212766,7.50638298 C0.0510638298,7.14893617 3.62210262e-15,6.84255319 0.204255319,6.53617021 C0.357446809,6.33191489 0.714893617,6.28085106 1.07234043,6.22978723 C1.94042553,6.07659574 2.80851064,5.97446809 3.62553191,5.8212766 C5.97446809,5.46382979 8.52765957,5.10638298 11.0297872,4.74893617 C12.6638298,4.54468085 13.9914894,4.59574468 15.2170213,5.00425532 C17.106383,5.56595745 18.1276596,6.84255319 18.9446809,8.01702128 C19.812766,9.34468085 20.3744681,10.8765957 20.6808511,12.7148936 C21.0893617,14.6042553 21.4468085,16.6468085 21.6510638,18.6382979 Z M15.012766,29.6170213 C14.6042553,26.4510638 14.3489362,24.8170213 13.9404255,21.6510638 C13.6340426,18.9957447 13.3276596,15.9829787 12.8170213,12.8680851 C12.612766,11.7446809 11.9489362,11.0297872 10.9787234,10.9276596 C10.5702128,10.8765957 10.1617021,10.9276596 9.80425532,10.9276596 C9.6,10.9787234 9.39574468,10.9787234 9.19148936,11.0297872 C8.98723404,10.9787234 8.93617021,11.0808511 8.93617021,11.0808511 C8.93617021,11.0808511 8.88510638,11.1319149 8.93617021,11.387234 C9.14042553,12.9702128 9.39574468,14.5021277 9.6,16.0340426 C9.65106383,16.493617 9.75319149,17.0042553 9.80425532,17.5659574 C9.85531915,17.5659574 9.85531915,17.6170213 9.90638298,17.7191489 C9.95744681,18.2297872 10.0085106,18.5361702 10.1106383,19.0468085 C10.3659574,20.6808511 10.5702128,22.3148936 10.8255319,24 C11.0808511,25.7361702 11.1829787,26.6042553 11.4382979,28.3404255 C11.693617,30.0255319 11.8978723,31.7106383 12.1531915,33.293617 C12.2042553,33.8042553 12.2553191,34.1106383 12.3574468,34.6212766 C12.3574468,34.7234043 12.4085106,34.8255319 12.306383,34.8765957 C12.3574468,35.3361702 12.4595745,35.8468085 12.5106383,36.306383 C12.7148936,37.8382979 12.9702128,39.3702128 13.1744681,40.9531915 C13.2255319,41.2085106 13.2765957,41.2595745 13.2765957,41.2595745 C13.2765957,41.2595745 13.3276596,41.3106383 13.5319149,41.2085106 C13.7361702,41.1574468 13.8893617,41.1574468 14.093617,41.106383 C14.4510638,41.0042553 14.8085106,40.9531915 15.1659574,40.7489362 C16.0340426,40.3914894 16.493617,39.5744681 16.3404255,38.3489362 C15.9319149,35.2340426 15.4723404,32.2723404 15.012766,29.6170213 Z" id="Shape"></path>
                    <path d="M43.9148936,38.5531915 C43.9659574,39.0638298 43.9659574,39.4723404 44.0170213,39.9319149 C44.0170213,40.8510638 44.1191489,41.7702128 44.2212766,42.6893617 C44.2212766,42.9957447 44.1191489,43.2510638 44.0170213,43.4553191 C43.812766,43.6595745 43.506383,43.6595745 43.3021277,43.7106383 C38.2468085,44.1191489 33.0382979,44.7829787 28.187234,45.1914894 C27.3702128,45.2425532 27.2680851,44.5787234 27.2170213,44.3234043 C27.0638298,42.7914894 26.8595745,41.3106383 26.706383,39.7787234 C26.5531915,38.2468085 26.3489362,36.8170213 26.1957447,35.2851064 C25.8893617,32.7319149 26.0425532,34.0595745 25.787234,31.506383 C25.6340426,30.2808511 25.5829787,29.6680851 25.4297872,28.3914894 C25.0723404,25.5829787 24.9191489,24.2042553 24.5617021,21.4468085 C23.9489362,16.0340426 23.3361702,10.5702128 22.6723404,5.15744681 C22.5702128,4.23829787 22.5191489,3.7787234 22.8255319,3.47234043 C22.9787234,3.26808511 23.3361702,3.21702128 23.8468085,3.16595745 C24.0510638,3.16595745 24.2553191,3.11489362 24.4595745,3.11489362 C28.0340426,2.70638298 31.6595745,2.4 35.1829787,2.09361702 C36.306383,1.99148936 36.8680851,1.94042553 37.9404255,1.83829787 C38.1957447,1.83829787 38.4,1.83829787 38.6042553,1.83829787 C38.8085106,1.83829787 39.012766,1.78723404 39.2170213,1.78723404 C39.8297872,1.73617021 40.187234,1.99148936 40.2382979,2.55319149 C40.3914894,4.13617021 40.493617,5.66808511 40.5957447,7.14893617 C40.5957447,7.45531915 40.493617,7.65957447 40.3914894,7.76170213 C40.2893617,7.91489362 39.9319149,7.96595745 39.8297872,8.01702128 C38.8595745,8.11914894 37.8893617,8.17021277 36.8680851,8.27234043 C35.1829787,8.42553191 33.4468085,8.5787234 31.7617021,8.73191489 C31.506383,8.78297872 31.4553191,8.78297872 31.4553191,8.78297872 C31.4553191,8.78297872 31.4553191,8.83404255 31.4553191,9.03829787 C31.812766,12.612766 32.4255319,18.6893617 32.7829787,22.3148936 C32.7829787,22.4170213 32.7829787,22.5191489 32.7829787,22.5191489 C32.7829787,22.5191489 32.8340426,22.5191489 33.0382979,22.5191489 C34.6723404,22.3659574 36.3574468,22.212766 37.9404255,22.0595745 C38.2978723,22.0085106 38.5021277,22.0085106 38.9106383,21.9574468 C39.0638298,21.9574468 39.1148936,21.9574468 39.2170213,21.906383 C39.3191489,21.906383 39.4212766,21.906383 39.5234043,21.8553191 C39.7787234,21.8553191 39.9829787,21.9574468 40.187234,22.0595745 C40.3404255,22.1617021 40.3914894,22.4170213 40.4425532,22.7234043 C40.6468085,24.1531915 40.8510638,26.9617021 40.9531915,28.3914894 C40.9531915,28.6468085 40.9021277,28.8 40.8,29.0042553 C40.6468085,29.2085106 40.2893617,29.2085106 40.1361702,29.2595745 C38.706383,29.3617021 37.9914894,29.4638298 36.5617021,29.5659574 C36.1021277,29.6170213 35.7446809,29.6170213 35.2851064,29.6680851 C34.7744681,29.7191489 34.1617021,29.7702128 33.6,29.8212766 C33.5489362,29.8212766 33.4978723,29.8212766 33.4978723,29.8212766 C33.4978723,29.8212766 33.4978723,29.8723404 33.4978723,29.9234043 C33.906383,34.3148936 33.906383,34.212766 34.2638298,37.787234 C34.2638298,37.8382979 34.2638298,37.8893617 34.2638298,37.8893617 C34.2638298,37.8893617 34.3148936,37.8893617 34.4680851,37.8893617 C36.7659574,37.6851064 39.2680851,37.4808511 42.3319149,37.2255319 C43.6085106,37.2255319 43.812766,37.3787234 43.9148936,38.5531915 Z" id="Shape"></path>
                    <path d="M76.8510638,9.0893617 C76.9531915,10.8765957 77.0042553,15.8808511 77.0042553,17.5659574 C77.0042553,17.8723404 76.9531915,18.0255319 76.9531915,18.2808511 C76.8510638,18.2808511 76.8,18.2808511 76.6978723,18.2808511 C76.8,18.2808511 76.8510638,18.2808511 76.9531915,18.2808511 C76.9531915,18.3319149 76.9531915,18.3319149 76.9531915,18.3829787 C76.9531915,18.6382979 76.9531915,18.7914894 76.9531915,19.0468085 C76.9531915,19.6085106 76.9021277,20.0680851 76.8510638,20.5276596 C76.6978723,21.8042553 76.3914894,22.9276596 75.8808511,23.9489362 C75.3191489,25.2255319 74.4510638,26.706383 72.7659574,27.5234043 C71.693617,28.0340426 70.4680851,28.2893617 68.8851064,28.3404255 C68.0170213,28.3404255 67.1489362,28.3914894 66.1787234,28.4425532 C66.0765957,28.4425532 65.9744681,28.5957447 65.9744681,28.6978723 C66.1276596,34.0085106 66.2297872,36.612766 66.4340426,41.9234043 C66.4340426,41.9744681 66.4340426,42.0255319 66.3829787,42.1276596 C66.2297872,42.3829787 65.9234043,42.3829787 65.6680851,42.3829787 C65.6680851,42.3829787 65.6170213,42.3829787 65.6170213,42.3829787 C63.3702128,42.4851064 61.6340426,42.4851064 60.0510638,42.5361702 C59.1319149,42.587234 58.9276596,42.3829787 58.8765957,41.5148936 C58.7744681,38.9617021 58.6212766,36.4085106 58.5191489,33.8553191 C58.1617021,26.9106383 57.8553191,19.9659574 57.4978723,13.0212766 C57.293617,8.47659574 57.1404255,6.1787234 56.9361702,1.63404255 C56.9361702,1.27659574 56.987234,0.970212766 57.1404255,0.765957447 C57.3446809,0.561702128 57.6510638,0.510638298 58.0595745,0.459574468 C58.9276596,0.408510638 59.7957447,0.357446809 60.6638298,0.357446809 C63.1148936,0.255319149 65.5659574,0.153191489 68.1191489,0.10212766 C69.8042553,0.0510638298 71.1319149,0.306382979 72.2553191,0.817021277 C74.0425532,1.58297872 75.012766,2.96170213 75.6255319,4.23829787 C76.3404255,5.61702128 76.7489362,7.2 76.8510638,9.0893617 Z M65.6680851,16.0851064 C65.6680851,16.5957447 65.7191489,16.8510638 65.7191489,17.3617021 C65.7702128,18.9957447 65.8212766,20.7319149 65.8723404,22.4170213 C65.8723404,22.4680851 65.9234043,22.5191489 65.9234043,22.6212766 C66.0255319,22.6212766 66.1787234,22.6212766 66.2808511,22.6212766 C66.3829787,22.6212766 66.5361702,22.6212766 66.6382979,22.6212766 C67.0978723,22.6212766 67.4553191,22.5191489 67.7617021,22.4680851 C68.6297872,22.1617021 69.1404255,21.4978723 69.1914894,20.5276596 C69.2425532,19.2510638 69.1914894,17.9744681 69.1404255,16.493617 C69.1404255,16.2893617 69.1404255,16.187234 69.1404255,15.9319149 C69.1404255,15.7276596 69.1404255,15.6255319 69.1404255,15.3702128 C69.0893617,13.8893617 68.987234,9.19148936 68.8851064,8.01702128 C68.7829787,7.04680851 68.2723404,6.38297872 67.3021277,6.1787234 C66.9957447,6.07659574 66.587234,6.07659574 66.1276596,6.07659574 C65.9744681,6.02553191 65.8723404,6.02553191 65.7191489,6.02553191 C65.5659574,6.02553191 65.4638298,6.02553191 65.3106383,6.02553191 C65.3106383,6.07659574 65.2595745,6.22978723 65.2595745,6.28085106 C65.3106383,7.91489362 65.3617021,9.65106383 65.412766,11.2851064 C65.4638298,13.1744681 65.5148936,14.093617 65.5659574,15.9829787 C65.5659574,15.9829787 65.5659574,15.9829787 65.5659574,16.0340426 C65.6680851,16.0340426 65.6680851,16.0340426 65.6680851,16.0851064 Z" id="Shape"></path>
                    <path d="M97.1234043,37.0723404 C97.2765957,38.2468085 97.4297872,39.4723404 97.6340426,40.6978723 C97.6851064,41.106383 97.6851064,41.5148936 97.4808511,41.7191489 C97.2765957,41.9744681 96.9191489,42.0255319 96.4085106,41.9744681 C95.7446809,41.9744681 91.3531915,41.9234043 90.6382979,41.9234043 C90.0765957,41.9234043 89.7702128,41.6680851 89.7191489,41.106383 C89.6170213,40.187234 89.5148936,39.2170213 89.412766,38.2468085 C89.3617021,37.3276596 89.2595745,36.3574468 89.1574468,35.387234 C89.106383,35.1319149 89.106383,35.1319149 88.9021277,35.1319149 C87.7787234,35.1319149 86.6553191,35.1319149 85.4808511,35.0808511 C85.2765957,35.0808511 85.2765957,35.0808511 85.2255319,35.387234 C85.0723404,36.612766 84.9191489,37.8382979 84.7659574,38.9617021 C84.6638298,39.7276596 84.5617021,40.493617 84.4595745,41.2595745 C84.4085106,41.8212766 83.8978723,41.8212766 83.6425532,41.8212766 C82.4170213,41.8212766 78.9446809,41.8212766 78.6893617,41.8212766 C78.6382979,41.8212766 78.6382979,41.8212766 78.6382979,41.8212766 C78.3319149,41.8212766 78.1276596,41.7702128 78.0255319,41.6680851 C77.8212766,41.4638298 77.7702128,41.2595745 77.8212766,40.9531915 C77.8723404,40.6468085 77.8723404,40.2893617 77.9234043,39.9829787 C77.9744681,39.4212766 78.0255319,38.8085106 78.1276596,38.2978723 C78.2297872,37.4808511 78.3829787,36.7148936 78.4851064,35.8978723 C78.5361702,35.2851064 78.6382979,34.7234043 78.7404255,34.212766 C78.7914894,33.906383 78.7914894,33.7531915 78.8425532,33.3957447 C79.0978723,31.7617021 79.3021277,29.9744681 79.5574468,28.2893617 C79.6595745,27.6255319 79.7617021,26.9617021 79.8638298,26.2978723 C79.9148936,25.6340426 80.0680851,24.9702128 80.1191489,24.306383 C80.3744681,22.9276596 80.5276596,21.4978723 80.7319149,20.1702128 C80.8340426,19.2510638 81.0382979,18.3829787 81.1914894,17.4638298 C81.2425532,16.7489362 81.3957447,16.0340426 81.4978723,15.3191489 C81.6510638,14.2468085 81.8042553,13.1234043 81.9574468,12.1021277 C82.0595745,11.387234 82.212766,10.5702128 82.3659574,9.80425532 C82.5702128,8.83404255 82.6723404,7.86382979 82.8255319,6.89361702 C83.0297872,5.8212766 83.1319149,4.64680851 83.3361702,3.62553191 C83.387234,3.21702128 83.4382979,3.06382979 83.4893617,2.65531915 C83.5404255,1.99148936 83.6425532,1.48085106 83.693617,1.0212766 C83.7446809,0.510638298 84.0510638,0.306382979 84.5617021,0.306382979 C87.2170213,0.306382979 88.5446809,0.306382979 91.2,0.357446809 C91.6595745,0.357446809 92.0170213,0.612765957 92.0680851,1.0212766 C92.3234043,2.80851064 92.5787234,4.64680851 92.8851064,6.63829787 C92.987234,7.35319149 93.1404255,8.11914894 93.2425532,8.78297872 C93.3957447,9.90638298 93.5489362,10.9787234 93.7021277,12 C93.8042553,12.8170213 93.9574468,13.6340426 94.0595745,14.4510638 C94.1617021,15.3702128 94.2638298,16.2893617 94.4680851,17.2085106 C94.5702128,18.1276596 94.7234043,19.0978723 94.8765957,20.0170213 C94.9787234,20.7319149 95.0808511,21.4468085 95.2340426,22.1617021 C95.3361702,22.8255319 95.4382979,23.5914894 95.4893617,24.2553191 C95.5914894,24.8170213 95.6425532,25.2765957 95.693617,25.8382979 C95.7957447,26.7574468 95.9489362,27.6765957 96.0510638,28.5957447 C96.1531915,29.3106383 96.2553191,30.1276596 96.3574468,30.8425532 C96.4595745,31.7617021 96.612766,32.6297872 96.7148936,33.5489362 C96.8170213,34.3148936 96.9191489,35.1319149 97.0212766,35.9489362 C97.0723404,36.306383 97.0723404,36.5617021 97.1234043,37.0723404 Z M88.3404255,29.6170213 C88.3914894,29.6170213 88.4425532,29.6170213 88.4425532,29.5659574 C88.4425532,29.5659574 88.493617,29.5659574 88.493617,29.5148936 C88.2382979,27.6255319 88.0851064,24.7148936 87.9319149,21.906383 C87.7787234,19.0468085 87.5234043,16.0851064 87.3702128,14.2978723 C86.9617021,19.3531915 86.6042553,24.4085106 86.2468085,29.4638298 C86.2468085,29.5148936 86.2468085,29.5659574 86.2978723,29.5659574 C86.2978723,29.6170213 86.2978723,29.6170213 86.3489362,29.6170213 C87.1659574,29.6170213 87.5234043,29.6170213 88.3404255,29.6170213 Z" id="Shape"></path>
                    <path d="M113.412766,42.0255319 C113.412766,42.3319149 113.310638,42.4851064 113.208511,42.6382979 C112.953191,42.8425532 112.697872,42.8425532 112.442553,42.8425532 C110.961702,42.7404255 109.480851,42.6893617 108.051064,42.6382979 C106.161702,42.587234 104.27234,42.5361702 102.280851,42.4340426 C101.923404,42.4340426 101.565957,42.3829787 101.259574,42.3829787 C101.004255,42.3829787 100.748936,42.2808511 100.595745,42.1276596 C100.442553,41.9234043 100.391489,41.6680851 100.391489,41.5148936 C100.391489,40.9021277 100.544681,35.8468085 100.544681,35.5914894 C100.340426,33.5489362 100.646809,30.6893617 100.748936,27.4212766 C100.851064,25.1234043 100.902128,22.8765957 101.004255,20.5276596 C101.106383,18.1276596 101.157447,15.7276596 101.208511,13.3787234 C101.259574,10.8765957 101.361702,8.27234043 101.412766,5.8212766 C101.46383,4.54468085 101.514894,3.26808511 101.565957,1.99148936 C101.565957,1.8893617 101.565957,1.73617021 101.565957,1.63404255 C101.565957,1.53191489 101.565957,1.3787234 101.565957,1.27659574 C101.565957,0.970212766 101.668085,0.714893617 101.87234,0.561702128 C102.076596,0.459574468 102.331915,0.357446809 102.689362,0.357446809 C103.506383,0.408510638 104.27234,0.408510638 105.140426,0.459574468 C106.161702,0.510638298 107.182979,0.561702128 108.255319,0.612765957 C109.531915,0.663829787 109.787234,0.919148936 109.685106,2.14468085 C109.480851,6.33191489 109.276596,10.4680851 109.07234,14.706383 C108.970213,16.4425532 108.919149,17.3106383 108.868085,19.0468085 C108.919149,19.1489362 108.919149,19.3531915 108.919149,19.5574468 C108.919149,19.8638298 108.868085,20.2723404 108.868085,20.8851064 C108.868085,21.906383 108.765957,23.4382979 108.714894,25.2255319 C108.561702,28.9021277 108.459574,32.987234 108.306383,35.4382979 C108.306383,35.7957447 108.255319,36.1531915 108.306383,36.2553191 C108.357447,36.306383 108.714894,36.3574468 109.174468,36.3574468 C109.531915,36.3574468 109.991489,36.4595745 110.348936,36.4595745 C111.165957,36.5106383 111.982979,36.5617021 112.748936,36.612766 C113.004255,36.5617021 113.259574,36.7148936 113.412766,36.9191489 C113.565957,37.1234043 113.719149,37.3787234 113.668085,37.5829787 C113.565957,38.9106383 113.46383,40.3404255 113.412766,42.0255319 Z" id="Shape"></path>
                    <path d="M141.855319,4.95319149 C141.804255,5.51489362 141.753191,6.02553191 141.702128,6.53617021 C140.93617,11.0297872 140.629787,16.1361702 140.017021,20.9361702 C139.506383,25.0723404 139.302128,27.1659574 138.791489,31.3021277 C138.740426,31.9148936 138.638298,32.4765957 138.587234,33.0382979 C138.434043,34.4170213 137.770213,39.5744681 137.617021,41.0553191 C137.565957,41.6680851 137.412766,42.3319149 137.361702,42.9446809 C137.259574,43.3531915 137.208511,43.7106383 137.157447,44.0680851 C137.157447,44.0680851 137.157447,44.0680851 137.157447,44.1191489 C137.157447,44.1191489 137.157447,44.1702128 137.106383,44.2212766 C137.106383,44.2212766 137.106383,44.2212766 137.106383,44.2723404 C137.106383,44.2723404 137.106383,44.3234043 137.106383,44.3744681 C137.055319,44.3744681 137.055319,44.3744681 137.055319,44.4255319 C137.004255,44.4255319 137.004255,44.4765957 137.004255,44.4765957 C137.004255,44.5276596 136.953191,44.5276596 136.953191,44.5276596 C136.902128,44.5787234 136.902128,44.5787234 136.8,44.5787234 C136.8,44.6297872 136.748936,44.6297872 136.748936,44.6297872 C136.697872,44.6297872 136.697872,44.6297872 136.697872,44.6297872 C136.646809,44.6808511 136.544681,44.6808511 136.544681,44.6808511 C136.544681,44.6808511 136.493617,44.6808511 136.493617,44.6808511 C136.442553,44.6808511 136.442553,44.6808511 136.391489,44.6808511 C136.187234,44.6808511 136.085106,44.6297872 135.829787,44.6297872 C134.144681,44.4255319 132.357447,44.2723404 130.570213,44.0680851 C130.468085,44.0680851 129.906383,44.0680851 129.753191,43.6085106 C129.753191,43.6085106 129.753191,43.5574468 129.753191,43.5574468 C129.702128,43.506383 129.702128,43.506383 129.702128,43.4553191 C129.702128,43.4042553 129.702128,43.3531915 129.651064,43.2510638 C129.651064,43.2510638 129.651064,43.2510638 129.651064,43.2 C129.651064,43.2 129.651064,43.1489362 129.651064,43.0978723 C130.008511,40.2382979 130.621277,33.7531915 130.876596,30.893617 C130.876596,30.7914894 130.774468,30.6893617 130.723404,30.6893617 C128.425532,30.4340426 127.251064,30.3319149 124.953191,30.1276596 C124.902128,30.1276596 124.851064,30.1276596 124.748936,30.1787234 C124.748936,30.1787234 124.697872,30.2297872 124.697872,30.2808511 C124.646809,30.7914894 124.646809,31.0978723 124.595745,31.6085106 C124.544681,32.2212766 124.187234,36.4595745 124.13617,37.0723404 C124.085106,37.9914894 123.982979,38.8595745 123.931915,39.6765957 C123.880851,40.2893617 123.778723,40.9531915 123.72766,41.5659574 C123.625532,41.9744681 123.625532,42.3319149 123.574468,42.7404255 C123.574468,42.7404255 123.523404,42.7404255 123.523404,42.7404255 C123.523404,42.7914894 123.523404,42.8425532 123.523404,42.9446809 C123.523404,42.9446809 123.523404,42.9446809 123.523404,42.9957447 C123.523404,42.9957447 123.523404,43.0468085 123.47234,43.0978723 C123.47234,43.0978723 123.47234,43.0978723 123.47234,43.1489362 C123.421277,43.1489362 123.421277,43.2 123.421277,43.2 C123.370213,43.2510638 123.370213,43.2510638 123.319149,43.2510638 C123.319149,43.3021277 123.268085,43.3021277 123.268085,43.3021277 C123.217021,43.3531915 123.217021,43.3531915 123.165957,43.3531915 C123.165957,43.3531915 123.165957,43.3531915 123.114894,43.3531915 C123.114894,43.4042553 123.06383,43.4042553 123.06383,43.4042553 C123.012766,43.4042553 123.012766,43.4042553 123.012766,43.4042553 C122.961702,43.4042553 122.910638,43.4042553 122.910638,43.4042553 C122.706383,43.4042553 122.604255,43.3531915 122.348936,43.3531915 C120.66383,43.2 118.825532,43.0978723 117.089362,42.9446809 C117.038298,42.9446809 117.038298,42.9446809 116.987234,42.9446809 C116.782979,42.9446809 116.374468,42.893617 116.27234,42.5361702 C116.221277,42.4340426 116.170213,42.2808511 116.170213,42.1787234 C116.170213,42.1787234 116.170213,42.1276596 116.170213,42.1276596 C116.170213,42.1276596 116.170213,42.0765957 116.170213,42.0255319 C116.323404,39.5744681 116.782979,33.4978723 116.987234,31.1489362 C117.089362,29.5659574 117.191489,27.9829787 117.293617,26.3489362 C117.395745,24.5617021 117.548936,22.7744681 117.651064,20.9361702 C117.702128,19.9659574 117.753191,19.506383 117.804255,18.587234 C117.804255,18.587234 117.804255,18.5361702 117.804255,18.5361702 C117.855319,18.0255319 118.26383,12.4085106 118.621277,7.30212766 C118.621277,6.94468085 118.67234,6.58723404 118.67234,6.22978723 C118.67234,6.1787234 118.67234,6.1787234 118.67234,6.12765957 C118.67234,5.8212766 118.723404,5.51489362 118.723404,5.15744681 C118.774468,5.05531915 118.774468,4.95319149 118.825532,4.85106383 C118.876596,4.13617021 118.92766,3.31914894 118.978723,2.60425532 C118.978723,2.55319149 118.978723,2.50212766 118.978723,2.4 C118.978723,2.4 118.978723,2.34893617 118.978723,2.34893617 C118.978723,2.29787234 118.978723,2.24680851 119.080851,2.19574468 C119.080851,2.14468085 119.080851,2.09361702 119.131915,2.09361702 C119.131915,2.04255319 119.131915,2.04255319 119.131915,2.04255319 C119.131915,1.99148936 119.182979,1.99148936 119.182979,1.94042553 C119.234043,1.94042553 119.234043,1.8893617 119.234043,1.8893617 C119.285106,1.8893617 119.285106,1.83829787 119.387234,1.83829787 C119.387234,1.78723404 119.387234,1.78723404 119.438298,1.78723404 C119.438298,1.78723404 119.489362,1.73617021 119.591489,1.73617021 C119.591489,1.73617021 119.591489,1.73617021 119.642553,1.73617021 C119.642553,1.68510638 119.693617,1.68510638 119.795745,1.68510638 C119.846809,1.68510638 119.846809,1.68510638 119.846809,1.68510638 C119.897872,1.68510638 119.897872,1.68510638 120,1.68510638 C120.051064,1.68510638 120.051064,1.68510638 120.051064,1.68510638 C121.685106,1.78723404 123.319149,1.94042553 124.953191,1.99148936 C125.46383,2.04255319 125.770213,2.04255319 126.280851,2.09361702 C126.280851,2.09361702 126.280851,2.09361702 126.331915,2.09361702 C126.382979,2.09361702 126.485106,2.09361702 126.53617,2.19574468 C126.740426,2.19574468 126.842553,2.29787234 126.995745,2.4 C127.046809,2.45106383 127.046809,2.50212766 127.097872,2.60425532 C127.148936,2.65531915 127.148936,2.70638298 127.148936,2.80851064 C127.148936,2.80851064 127.2,2.80851064 127.2,2.85957447 C127.2,2.9106383 127.2,2.96170213 127.2,3.06382979 C127.2,3.31914894 127.148936,3.47234043 127.2,3.72765957 C127.148936,4.23829787 127.097872,4.74893617 127.046809,5.3106383 C127.046809,5.36170213 127.046809,5.36170213 127.046809,5.41276596 C126.587234,10.5191489 126.076596,15.6255319 125.617021,20.7319149 C125.565957,21.3957447 125.514894,21.7531915 125.46383,22.4170213 C125.46383,22.5191489 125.565957,22.6723404 125.617021,22.6723404 C126.331915,22.7234043 127.097872,22.7744681 127.659574,22.8255319 C127.914894,22.8255319 128.170213,22.8765957 128.374468,22.8765957 C128.425532,22.9276596 128.578723,22.9787234 128.629787,22.9787234 C129.753191,23.0808511 130.365957,23.1319149 131.489362,23.2340426 C131.540426,23.2340426 131.642553,23.1829787 131.693617,23.1319149 C131.795745,21.8042553 131.897872,21.1404255 132,19.8638298 C132,19.8638298 132,19.812766 132,19.812766 C132.051064,19.3021277 132.66383,13.6851064 133.123404,8.5787234 C133.225532,7.7106383 133.32766,6.89361702 133.429787,6.07659574 C133.480851,5.66808511 133.531915,5.20851064 133.531915,4.8 C133.582979,4.49361702 133.582979,4.13617021 133.634043,3.82978723 C133.634043,3.7787234 133.634043,3.72765957 133.634043,3.62553191 C133.634043,3.62553191 133.634043,3.57446809 133.634043,3.57446809 C133.685106,3.52340426 133.73617,3.47234043 133.73617,3.4212766 C133.73617,3.37021277 133.838298,3.31914894 133.838298,3.31914894 C133.838298,3.26808511 133.838298,3.26808511 133.838298,3.26808511 C133.889362,3.21702128 133.889362,3.21702128 133.991489,3.16595745 C133.991489,3.16595745 133.991489,3.11489362 133.991489,3.11489362 C134.042553,3.11489362 134.042553,3.06382979 134.144681,3.06382979 C134.144681,3.01276596 134.195745,3.01276596 134.195745,3.01276596 C134.246809,3.01276596 134.246809,2.96170213 134.348936,2.96170213 C134.4,2.96170213 134.4,2.96170213 134.4,2.96170213 C134.451064,2.9106383 134.451064,2.9106383 134.553191,2.9106383 C134.604255,2.9106383 134.604255,2.9106383 134.706383,2.9106383 C134.757447,2.9106383 134.757447,2.9106383 134.757447,2.9106383 C134.808511,2.9106383 134.808511,2.9106383 134.808511,2.9106383 C136.442553,3.06382979 138.025532,3.21702128 139.710638,3.37021277 C140.221277,3.4212766 140.52766,3.47234043 141.038298,3.52340426 C141.089362,3.52340426 141.089362,3.52340426 141.089362,3.52340426 C141.242553,3.52340426 141.293617,3.52340426 141.344681,3.62553191 C141.497872,3.62553191 141.6,3.72765957 141.702128,3.82978723 C141.702128,3.82978723 141.702128,3.82978723 141.753191,3.82978723 C141.753191,3.88085106 141.804255,3.98297872 141.804255,4.03404255 C141.855319,4.03404255 141.855319,4.03404255 141.855319,4.03404255 C141.855319,4.08510638 141.855319,4.13617021 141.906383,4.23829787 C141.906383,4.23829787 141.906383,4.23829787 141.906383,4.2893617 C141.906383,4.34042553 141.906383,4.39148936 141.906383,4.49361702 C141.804255,4.54468085 141.855319,4.69787234 141.855319,4.95319149 Z" id="Shape"></path>
                    <path d="M159.523404,42.8425532 C159.523404,44.0170213 159.523404,45.2425532 159.574468,46.4680851 C159.574468,46.8765957 159.523404,47.2851064 159.268085,47.4893617 C159.06383,47.693617 158.655319,47.693617 158.195745,47.6425532 C157.531915,47.5404255 153.140426,46.9276596 152.476596,46.8255319 C151.914894,46.7234043 151.659574,46.4680851 151.659574,45.906383 C151.659574,44.987234 151.659574,44.0170213 151.710638,42.9957447 C151.761702,42.0765957 151.812766,41.106383 151.812766,40.1361702 C151.761702,39.8808511 151.761702,39.8808511 151.608511,39.8808511 C150.485106,39.7276596 149.412766,39.5744681 148.238298,39.4212766 C148.034043,39.4212766 148.034043,39.4212766 147.931915,39.6765957 C147.625532,40.8510638 147.319149,42.0765957 147.012766,43.2 C146.808511,43.9659574 146.655319,44.6808511 146.4,45.4468085 C146.246809,46.0085106 145.787234,45.906383 145.531915,45.906383 C144.306383,45.7531915 140.834043,45.3446809 140.578723,45.293617 C140.52766,45.293617 140.52766,45.293617 140.52766,45.293617 C140.221277,45.2425532 140.068085,45.1914894 139.914894,45.0382979 C139.761702,44.8340426 139.710638,44.5787234 139.812766,44.2723404 C139.914894,43.9659574 139.965957,43.6085106 140.068085,43.3021277 C140.170213,42.7404255 140.323404,42.1787234 140.52766,41.6170213 C140.731915,40.8510638 140.93617,40.0851064 141.191489,39.3191489 C141.344681,38.706383 141.497872,38.1957447 141.651064,37.6340426 C141.753191,37.3276596 141.804255,37.1744681 141.855319,36.8680851 C142.314894,35.2851064 142.774468,33.5489362 143.234043,31.8638298 C143.438298,31.2 143.591489,30.5361702 143.795745,29.9234043 C143.948936,29.2595745 144.153191,28.5957447 144.306383,27.9319149 C144.714894,26.5531915 145.07234,25.2255319 145.429787,23.8978723 C145.685106,23.0297872 145.940426,22.1617021 146.195745,21.293617 C146.348936,20.5787234 146.604255,19.9148936 146.757447,19.2 C147.06383,18.1787234 147.319149,17.106383 147.625532,16.0340426 C147.829787,15.3191489 148.085106,14.5531915 148.289362,13.787234 C148.595745,12.8680851 148.851064,11.8978723 149.106383,10.9276596 C149.46383,9.85531915 149.719149,8.73191489 150.025532,7.7106383 C150.12766,7.35319149 150.178723,7.14893617 150.280851,6.74042553 C150.434043,6.07659574 150.53617,5.61702128 150.689362,5.15744681 C150.842553,4.69787234 151.097872,4.49361702 151.659574,4.54468085 C154.314894,4.90212766 155.642553,5.05531915 158.246809,5.46382979 C158.706383,5.51489362 159.012766,5.8212766 159.012766,6.22978723 C159.012766,8.01702128 159.06383,9.85531915 159.114894,11.8978723 C159.114894,12.6638298 159.165957,13.3787234 159.217021,14.0425532 C159.268085,15.1659574 159.217021,16.2382979 159.268085,17.3106383 C159.268085,18.1276596 159.268085,18.9957447 159.319149,19.7617021 C159.319149,20.6808511 159.319149,21.6 159.370213,22.5191489 C159.370213,23.4382979 159.370213,24.4595745 159.421277,25.3787234 C159.421277,26.093617 159.47234,26.8085106 159.47234,27.5234043 C159.47234,28.187234 159.523404,28.9531915 159.47234,29.6170213 C159.523404,30.1787234 159.523404,30.6893617 159.47234,31.2 C159.47234,32.1191489 159.47234,33.0893617 159.47234,33.9574468 C159.47234,34.6723404 159.523404,35.4893617 159.523404,36.2553191 C159.523404,37.1744681 159.574468,38.0425532 159.523404,38.9617021 C159.523404,39.7787234 159.523404,40.5446809 159.523404,41.3617021 C159.523404,42.0765957 159.523404,42.3319149 159.523404,42.8425532 Z M151.710638,34.3148936 C151.761702,34.3148936 151.812766,34.3148936 151.86383,34.2638298 C151.86383,34.2638298 151.914894,34.2638298 151.914894,34.212766 C151.914894,32.3234043 152.119149,29.3617021 152.323404,26.5531915 C152.52766,23.693617 152.680851,20.7319149 152.731915,18.893617 C151.659574,23.8468085 150.689362,28.8510638 149.668085,33.8042553 C149.668085,33.8553191 149.668085,33.906383 149.719149,33.9574468 C149.719149,34.0085106 149.719149,34.0085106 149.770213,34.0085106 C150.53617,34.1617021 150.944681,34.212766 151.710638,34.3148936 Z" id="Shape"></path>
                </g>
                <g id="Group" transform="translate(55.148936, 0.000000)">
                    <path d="M4.95319149,7.35319149 C5.00425532,7.35319149 5.05531915,7.35319149 5.10638298,7.40425532 C5.15744681,7.45531915 5.20851064,7.50638298 5.20851064,7.55744681 C5.20851064,7.86382979 5.25957447,8.11914894 5.25957447,8.32340426 C5.25957447,8.83404255 5.20851064,9.39574468 5.00425532,9.85531915 C4.74893617,10.4680851 4.2893617,10.8765957 3.67659574,11.0297872 C3.47234043,11.0808511 3.21702128,11.0808511 3.01276596,11.1319149 C2.85957447,11.1319149 2.65531915,11.1829787 2.50212766,11.1319149 C1.99148936,11.1319149 1.53191489,10.8255319 1.17446809,10.3659574 C0.919148936,10.0085106 0.817021277,9.65106383 0.714893617,9.24255319 C0.561702128,8.68085106 0.510638298,8.11914894 0.459574468,7.55744681 C0.459574468,7.40425532 0.459574468,7.25106383 0.408510638,7.09787234 C0.408510638,6.99574468 0.408510638,6.94468085 0.408510638,6.84255319 C0.357446809,6.1787234 0.255319149,5.46382979 0.204255319,4.74893617 C0.153191489,4.23829787 0.153191489,3.72765957 0.153191489,3.26808511 C0.153191489,2.75744681 0.306382979,2.24680851 0.561702128,1.8893617 C0.817021277,1.48085106 1.17446809,1.17446809 1.68510638,1.12340426 C2.09361702,1.07234043 2.55319149,1.0212766 2.96170213,0.970212766 C3.47234043,0.970212766 3.88085106,1.17446809 4.23829787,1.63404255 C4.44255319,1.8893617 4.59574468,2.24680851 4.69787234,2.65531915 C4.85106383,3.21702128 4.90212766,3.82978723 4.95319149,4.23829787 C4.95319149,4.2893617 4.95319149,4.39148936 4.95319149,4.44255319 C4.95319149,4.59574468 4.85106383,4.69787234 4.74893617,4.69787234 C4.18723404,4.74893617 3.88085106,4.74893617 3.31914894,4.8 C3.21702128,4.8 3.06382979,4.69787234 3.06382979,4.59574468 C3.01276596,4.13617021 3.01276596,3.7787234 2.96170213,3.47234043 C2.96170213,3.21702128 2.9106383,2.96170213 2.85957447,2.70638298 C2.80851064,2.55319149 2.70638298,2.45106383 2.65531915,2.45106383 C2.50212766,2.4 2.29787234,2.45106383 2.19574468,2.55319149 C2.09361702,2.65531915 2.04255319,2.80851064 2.04255319,3.01276596 C2.09361702,3.98297872 2.19574468,5.00425532 2.29787234,6.33191489 C2.34893617,7.09787234 2.45106383,7.91489362 2.50212766,8.93617021 C2.50212766,9.0893617 2.55319149,9.29361702 2.55319149,9.44680851 C2.55319149,9.6 2.65531915,9.65106383 2.75744681,9.70212766 C2.85957447,9.70212766 2.96170213,9.70212766 3.06382979,9.70212766 C3.21702128,9.70212766 3.31914894,9.6 3.31914894,9.44680851 C3.31914894,9.24255319 3.37021277,9.03829787 3.37021277,8.83404255 C3.37021277,8.52765957 3.31914894,8.17021277 3.26808511,7.76170213 C3.26808511,7.60851064 3.37021277,7.50638298 3.47234043,7.50638298 C4.13617021,7.40425532 4.39148936,7.40425532 4.95319149,7.35319149 Z" id="Shape"></path>
                    <path d="M7.35319149,1.12340426 C7.35319149,1.27659574 7.35319149,1.3787234 7.35319149,1.48085106 C7.45531915,2.9106383 7.50638298,4.39148936 7.55744681,5.8212766 C7.60851064,6.74042553 7.60851064,7.2 7.65957447,8.17021277 C7.65957447,8.37446809 7.65957447,8.5787234 7.7106383,8.78297872 C7.7106383,9.14042553 7.76170213,9.49787234 7.76170213,9.80425532 C7.76170213,9.95744681 7.76170213,10.1106383 7.76170213,10.2638298 C7.76170213,10.3659574 7.76170213,10.4170213 7.76170213,10.5191489 C7.76170213,10.6212766 7.7106383,10.7234043 7.55744681,10.7234043 C7.50638298,10.7234043 7.45531915,10.7234043 7.40425532,10.7234043 C6.99574468,10.7234043 6.58723404,10.7744681 6.12765957,10.8255319 C6.12765957,10.8255319 6.12765957,10.8255319 6.12765957,10.8255319 C6.07659574,10.8255319 6.02553191,10.8255319 5.97446809,10.7744681 C5.92340426,10.7234043 5.92340426,10.6723404 5.92340426,10.6212766 C5.87234043,9.54893617 5.8212766,8.52765957 5.77021277,7.76170213 C5.71914894,7.30212766 5.71914894,6.89361702 5.66808511,6.48510638 C5.66808511,6.22978723 5.66808511,6.12765957 5.61702128,5.92340426 C5.61702128,5.92340426 5.61702128,5.92340426 5.61702128,5.92340426 C5.61702128,5.8212766 5.46382979,3.57446809 5.41276596,2.34893617 C5.41276596,2.14468085 5.41276596,1.94042553 5.41276596,1.73617021 C5.41276596,1.58297872 5.41276596,1.3787234 5.36170213,1.17446809 C5.36170213,1.0212766 5.41276596,0.919148936 5.56595745,0.919148936 C5.92340426,0.919148936 6.28085106,0.868085106 6.6893617,0.868085106 C6.79148936,0.868085106 6.89361702,0.868085106 6.99574468,0.817021277 C7.14893617,0.817021277 7.25106383,0.868085106 7.25106383,1.0212766 C7.30212766,1.0212766 7.30212766,1.07234043 7.35319149,1.12340426 Z" id="Shape"></path>
                    <path d="M13.0212766,9.29361702 C13.0723404,9.54893617 13.1234043,9.85531915 13.2255319,10.1617021 C13.2255319,10.2638298 13.2255319,10.3659574 13.2255319,10.4170213 C13.1744681,10.4680851 13.0723404,10.5191489 12.9702128,10.5191489 C12.8170213,10.5191489 11.7446809,10.5702128 11.5914894,10.6212766 C11.4382979,10.6212766 11.387234,10.5702128 11.387234,10.4170213 C11.3361702,10.212766 11.2851064,9.95744681 11.2851064,9.75319149 C11.2340426,9.54893617 11.2340426,9.29361702 11.1829787,9.0893617 C11.1829787,9.03829787 11.1829787,9.03829787 11.1319149,9.03829787 C10.8765957,9.03829787 10.6212766,9.0893617 10.3148936,9.0893617 C10.2638298,9.0893617 10.2638298,9.0893617 10.2638298,9.14042553 C10.2638298,9.44680851 10.212766,9.75319149 10.212766,10.0085106 C10.212766,10.212766 10.212766,10.3659574 10.1617021,10.5702128 C10.1617021,10.7234043 10.0595745,10.7234043 9.95744681,10.7234043 C9.65106383,10.7234043 8.83404255,10.7744681 8.78297872,10.7744681 C8.78297872,10.7744681 8.78297872,10.7744681 8.78297872,10.7744681 C8.73191489,10.7744681 8.68085106,10.7744681 8.62978723,10.7234043 C8.5787234,10.6723404 8.5787234,10.6212766 8.5787234,10.5702128 C8.5787234,10.5191489 8.5787234,10.4170213 8.5787234,10.3148936 C8.5787234,10.1617021 8.5787234,10.0595745 8.62978723,9.90638298 C8.62978723,9.70212766 8.68085106,9.49787234 8.68085106,9.34468085 C8.68085106,9.19148936 8.73191489,9.0893617 8.73191489,8.93617021 C8.73191489,8.83404255 8.73191489,8.83404255 8.73191489,8.73191489 C8.78297872,8.32340426 8.78297872,7.91489362 8.83404255,7.50638298 C8.83404255,7.35319149 8.88510638,7.2 8.88510638,6.99574468 C8.88510638,6.84255319 8.93617021,6.6893617 8.93617021,6.48510638 C8.98723404,6.12765957 8.98723404,5.8212766 9.03829787,5.46382979 C9.03829787,5.25957447 9.0893617,5.05531915 9.0893617,4.8 C9.0893617,4.64680851 9.14042553,4.44255319 9.14042553,4.2893617 C9.14042553,4.03404255 9.19148936,3.7787234 9.19148936,3.52340426 C9.19148936,3.37021277 9.24255319,3.16595745 9.24255319,2.96170213 C9.29361702,2.70638298 9.29361702,2.50212766 9.29361702,2.24680851 C9.34468085,1.99148936 9.34468085,1.68510638 9.39574468,1.42978723 C9.39574468,1.32765957 9.39574468,1.27659574 9.39574468,1.17446809 C9.39574468,1.0212766 9.39574468,0.919148936 9.39574468,0.765957447 C9.39574468,0.663829787 9.44680851,0.561702128 9.6,0.561702128 C10.212766,0.510638298 10.5191489,0.510638298 11.0808511,0.459574468 C11.1829787,0.459574468 11.2851064,0.510638298 11.2851064,0.612765957 C11.387234,1.0212766 11.4382979,1.48085106 11.5404255,1.94042553 C11.5914894,2.09361702 11.6425532,2.29787234 11.6425532,2.45106383 C11.693617,2.70638298 11.7446809,2.96170213 11.7957447,3.21702128 C11.8468085,3.4212766 11.8978723,3.62553191 11.8978723,3.7787234 C11.9489362,3.98297872 12,4.23829787 12.0510638,4.44255319 C12.1021277,4.64680851 12.1531915,4.90212766 12.2042553,5.10638298 C12.2553191,5.25957447 12.2553191,5.46382979 12.306383,5.61702128 C12.3574468,5.77021277 12.3574468,5.97446809 12.4085106,6.12765957 C12.4595745,6.28085106 12.4595745,6.38297872 12.5106383,6.48510638 C12.5617021,6.6893617 12.612766,6.94468085 12.6638298,7.14893617 C12.7148936,7.30212766 12.7659574,7.50638298 12.7659574,7.7106383 C12.8170213,7.91489362 12.8680851,8.11914894 12.9191489,8.37446809 C12.9702128,8.5787234 12.9702128,8.73191489 13.0212766,8.93617021 C12.9702128,9.0893617 12.9702128,9.14042553 13.0212766,9.29361702 Z M10.8255319,7.65957447 C10.8255319,7.65957447 10.8255319,7.65957447 10.8255319,7.65957447 C10.8255319,7.60851064 10.8255319,7.60851064 10.8255319,7.65957447 C10.7744681,7.2 10.7234043,6.48510638 10.6212766,5.8212766 C10.5191489,5.15744681 10.4680851,4.44255319 10.3659574,3.98297872 C10.3659574,4.39148936 10.3148936,6.07659574 10.3148936,7.65957447 C10.3148936,7.65957447 10.3148936,7.7106383 10.3148936,7.7106383 C10.3148936,7.7106383 10.3148936,7.7106383 10.3148936,7.7106383 C10.5191489,7.65957447 10.6212766,7.65957447 10.8255319,7.65957447 Z" id="Shape"></path>
                    <path d="M21.0382979,3.7787234 C21.0382979,4.08510638 21.0893617,6.38297872 21.0893617,6.6893617 C21.0893617,7.14893617 21.0893617,7.65957447 21.0893617,8.11914894 C21.0893617,8.5787234 20.987234,8.93617021 20.8340426,9.29361702 C20.6808511,9.6 20.5276596,9.95744681 20.1191489,10.1617021 C19.8638298,10.3148936 19.5574468,10.3659574 19.2,10.3659574 C18.7914894,10.3659574 18.3319149,10.3659574 17.9234043,10.4170213 C17.6680851,10.4170213 17.412766,10.4170213 17.1574468,10.4170213 C17.106383,10.4170213 17.0553191,10.4170213 17.0042553,10.4170213 C16.9021277,10.4170213 16.8510638,10.4170213 16.8,10.3659574 C16.7489362,10.3148936 16.7489362,10.212766 16.7489362,10.1617021 C16.5957447,6.33191489 16.5446809,4.39148936 16.3914894,0.561702128 C16.3914894,0.459574468 16.3914894,0.408510638 16.4425532,0.357446809 C16.493617,0.306382979 16.5446809,0.306382979 16.6468085,0.306382979 C16.8510638,0.306382979 17.0553191,0.306382979 17.2085106,0.306382979 C17.7702128,0.306382979 18.3319149,0.255319149 18.893617,0.255319149 C19.2510638,0.255319149 19.5574468,0.306382979 19.812766,0.408510638 C20.2212766,0.612765957 20.4255319,0.919148936 20.5787234,1.22553191 C20.7319149,1.58297872 20.8340426,1.94042553 20.8851064,2.4 C20.987234,2.80851064 21.0382979,3.26808511 21.0382979,3.7787234 Z M19.2510638,6.22978723 C19.2510638,5.46382979 19.2,5.05531915 19.2,4.2893617 C19.2,3.62553191 19.2,2.9106383 19.1489362,2.14468085 C19.1489362,1.8893617 18.9957447,1.68510638 18.7914894,1.63404255 C18.6893617,1.58297872 18.587234,1.63404255 18.5361702,1.58297872 C18.4851064,1.58297872 18.4340426,1.58297872 18.3829787,1.58297872 C18.3319149,1.58297872 18.3319149,1.58297872 18.3319149,1.58297872 C18.3319149,1.58297872 18.3319149,1.58297872 18.3319149,1.63404255 C18.3319149,1.99148936 18.3319149,2.4 18.3829787,2.75744681 C18.3829787,2.85957447 18.3829787,3.01276596 18.3829787,3.11489362 C18.3829787,3.11489362 18.3829787,3.11489362 18.3829787,3.16595745 C18.3829787,3.31914894 18.3829787,3.37021277 18.3829787,3.47234043 C18.3829787,3.88085106 18.3829787,4.23829787 18.4340426,4.69787234 C18.4340426,5.10638298 18.4340426,5.3106383 18.4851064,5.77021277 C18.4851064,6.1787234 18.4851064,6.58723404 18.5361702,6.99574468 C18.5361702,7.14893617 18.5361702,7.2 18.5361702,7.30212766 C18.5361702,7.35319149 18.5361702,7.35319149 18.5361702,7.35319149 C18.5361702,7.45531915 18.5361702,7.60851064 18.5361702,7.7106383 C18.5361702,8.06808511 18.5361702,8.47659574 18.587234,8.83404255 C18.587234,8.88510638 18.587234,8.88510638 18.587234,8.88510638 C18.587234,8.88510638 18.587234,8.88510638 18.6382979,8.88510638 C18.6893617,8.88510638 18.7404255,8.88510638 18.7914894,8.88510638 C18.893617,8.88510638 18.9446809,8.88510638 19.0468085,8.83404255 C19.2510638,8.78297872 19.4042553,8.5787234 19.4042553,8.27234043 C19.3021277,7.55744681 19.2510638,6.84255319 19.2510638,6.22978723 Z" id="Shape"></path>
                    <path d="M25.8382979,8.98723404 C25.8382979,9.0893617 25.8382979,9.19148936 25.8382979,9.34468085 C25.8382979,9.54893617 25.8382979,9.80425532 25.8382979,10.0085106 C25.8382979,10.0595745 25.787234,10.1617021 25.787234,10.1617021 C25.7361702,10.212766 25.6340426,10.212766 25.6340426,10.212766 C24.4595745,10.212766 23.1829787,10.2638298 22.0085106,10.2638298 C21.8042553,10.2638298 21.8042553,10.1106383 21.8042553,10.0085106 C21.8042553,9.65106383 21.8042553,9.29361702 21.8042553,8.93617021 C21.8042553,8.5787234 21.8042553,8.2212766 21.8042553,7.86382979 C21.8042553,7.25106383 21.8042553,7.55744681 21.8042553,6.94468085 C21.8042553,6.63829787 21.8042553,6.48510638 21.8042553,6.1787234 C21.8042553,5.51489362 21.7531915,5.15744681 21.7531915,4.49361702 C21.7531915,3.37021277 21.7021277,1.68510638 21.6510638,0.561702128 C21.6510638,0.357446809 21.6510638,0.204255319 21.7021277,0.153191489 C21.7531915,0.10212766 21.8042553,0.10212766 21.9574468,0.10212766 C22.0085106,0.10212766 22.0595745,0.10212766 22.1106383,0.10212766 C22.9276596,0.10212766 23.7446809,0.10212766 24.5617021,0.10212766 C24.8170213,0.10212766 24.9191489,0.10212766 25.1744681,0.10212766 C25.2255319,0.10212766 25.2765957,0.10212766 25.3276596,0.10212766 C25.3787234,0.10212766 25.4297872,0.10212766 25.4808511,0.10212766 C25.6340426,0.10212766 25.6851064,0.153191489 25.6851064,0.306382979 C25.6851064,0.663829787 25.6851064,1.07234043 25.6851064,1.42978723 C25.6851064,1.48085106 25.6340426,1.53191489 25.6340426,1.58297872 C25.5829787,1.63404255 25.5319149,1.63404255 25.4808511,1.63404255 C25.2765957,1.63404255 25.0212766,1.63404255 24.8170213,1.63404255 C24.4085106,1.63404255 24.0510638,1.63404255 23.6425532,1.63404255 C23.5914894,1.63404255 23.5914894,1.63404255 23.5914894,1.63404255 C23.5914894,1.63404255 23.5914894,1.63404255 23.5914894,1.68510638 C23.5914894,2.55319149 23.6425532,4.03404255 23.6425532,4.90212766 C23.6425532,4.95319149 23.6425532,4.95319149 23.6425532,4.95319149 C23.6425532,4.95319149 23.6425532,4.95319149 23.693617,4.95319149 C24.1021277,4.95319149 24.4595745,4.95319149 24.8170213,4.95319149 C24.9191489,4.95319149 24.9702128,4.95319149 25.0212766,4.95319149 C25.0723404,4.95319149 25.0723404,4.95319149 25.0723404,4.95319149 C25.1234043,4.95319149 25.1234043,4.95319149 25.1234043,4.95319149 C25.1744681,4.95319149 25.2255319,5.00425532 25.2765957,5.00425532 C25.3276596,5.05531915 25.3276596,5.10638298 25.3276596,5.15744681 C25.3276596,5.51489362 25.3787234,6.1787234 25.3787234,6.53617021 C25.3787234,6.58723404 25.3787234,6.63829787 25.3276596,6.6893617 C25.2765957,6.74042553 25.2255319,6.74042553 25.1744681,6.74042553 C24.8170213,6.74042553 24.6638298,6.74042553 24.306383,6.74042553 C24.2042553,6.74042553 24.1021277,6.74042553 24,6.74042553 C23.8978723,6.74042553 23.7446809,6.74042553 23.5914894,6.74042553 C23.5914894,6.74042553 23.5404255,6.74042553 23.5404255,6.74042553 C23.5404255,6.74042553 23.5404255,6.74042553 23.5404255,6.79148936 C23.5404255,7.86382979 23.5404255,7.81276596 23.5914894,8.68085106 C23.5914894,8.68085106 23.5914894,8.73191489 23.5914894,8.73191489 C23.5914894,8.73191489 23.5914894,8.73191489 23.6425532,8.73191489 C24.2042553,8.73191489 24.7659574,8.73191489 25.5319149,8.73191489 C25.787234,8.68085106 25.8382979,8.68085106 25.8382979,8.98723404 Z" id="Shape"></path>
                    <path d="M33.9574468,0.357446809 C33.9574468,0.663829787 33.9574468,0.970212766 33.9574468,1.32765957 C33.9574468,1.58297872 33.906383,1.58297872 33.6510638,1.58297872 C33.3446809,1.58297872 32.987234,1.58297872 32.6297872,1.58297872 C32.5787234,1.58297872 32.5787234,1.58297872 32.5787234,1.58297872 C32.5787234,1.58297872 32.5787234,1.58297872 32.5787234,1.63404255 C32.5787234,2.34893617 32.5787234,3.06382979 32.5787234,3.57446809 C32.5787234,4.13617021 32.5787234,4.69787234 32.5787234,5.20851064 C32.5787234,5.77021277 32.5787234,6.38297872 32.5787234,6.94468085 C32.5787234,7.55744681 32.5276596,8.17021277 32.5787234,8.78297872 C32.5787234,9.0893617 32.5787234,9.39574468 32.5787234,9.65106383 C32.5787234,9.70212766 32.5787234,9.70212766 32.5787234,9.75319149 C32.5787234,9.80425532 32.5787234,9.80425532 32.5787234,9.85531915 C32.5787234,9.90638298 32.5787234,10.0085106 32.5276596,10.0085106 C32.4765957,10.0595745 32.4255319,10.0595745 32.3744681,10.0595745 C32.2212766,10.0595745 32.0170213,10.0595745 31.812766,10.0595745 C31.6085106,10.0595745 31.4042553,10.0595745 31.2,10.0595745 C31.1489362,10.0595745 31.1489362,10.0595745 31.0978723,10.0595745 C30.8425532,10.0595745 30.7404255,10.0085106 30.7404255,9.70212766 C30.7404255,8.27234043 30.6893617,5.8212766 30.6893617,5.66808511 C30.6893617,5.66808511 30.6893617,5.66808511 30.6893617,5.66808511 C30.6893617,5.25957447 30.6893617,5.05531915 30.6893617,4.64680851 C30.6893617,3.67659574 30.6893617,2.70638298 30.6893617,1.73617021 C30.6893617,1.63404255 30.6893617,1.58297872 30.6893617,1.53191489 C30.6893617,1.53191489 30.587234,1.53191489 30.4851064,1.53191489 C30.3829787,1.53191489 30.2808511,1.53191489 30.1787234,1.53191489 C29.9744681,1.53191489 29.7702128,1.53191489 29.6170213,1.53191489 C29.5659574,1.53191489 29.4638298,1.53191489 29.412766,1.48085106 C29.3617021,1.42978723 29.3617021,1.3787234 29.3617021,1.32765957 C29.3617021,0.970212766 29.3617021,0.663829787 29.3617021,0.255319149 C29.3617021,0.204255319 29.3617021,0.153191489 29.412766,0.10212766 C29.4638298,0.0510638298 29.5148936,0.0510638298 29.6170213,0.0510638298 C29.9744681,0.0510638298 30.3319149,0.0510638298 30.6893617,0.0510638298 C31.1489362,0.0510638298 31.6085106,0.0510638298 32.0680851,0.0510638298 C32.4765957,0.0510638298 32.8851064,0.0510638298 33.293617,0.0510638298 C33.4468085,0.0510638298 33.5489362,0.0510638298 33.7021277,0.0510638298 C33.906383,0.10212766 33.9574468,0.153191489 33.9574468,0.357446809 Z" id="Shape"></path>
                    <path d="M38.5531915,9.0893617 C38.5531915,9.19148936 38.5531915,9.29361702 38.5531915,9.44680851 C38.5531915,9.65106383 38.5021277,9.90638298 38.5531915,10.1106383 C38.5531915,10.1617021 38.5021277,10.2638298 38.5021277,10.2638298 C38.4510638,10.3148936 38.3489362,10.3148936 38.3489362,10.3148936 C37.1744681,10.2638298 35.8978723,10.3148936 34.7234043,10.2638298 C34.5191489,10.2638298 34.5191489,10.1106383 34.5191489,10.0085106 C34.5191489,9.65106383 34.5191489,9.29361702 34.5191489,8.88510638 C34.5191489,8.52765957 34.5191489,8.17021277 34.5191489,7.81276596 C34.5191489,7.2 34.5191489,7.50638298 34.5191489,6.89361702 C34.5191489,6.58723404 34.5191489,6.43404255 34.5191489,6.12765957 C34.5191489,5.46382979 34.5191489,5.10638298 34.5191489,4.44255319 C34.5191489,3.31914894 34.5702128,1.63404255 34.5702128,0.510638298 C34.5702128,0.306382979 34.5702128,0.153191489 34.6723404,0.10212766 C34.7234043,0.0510638298 34.7744681,0.0510638298 34.9276596,0.0510638298 C34.9787234,0.0510638298 35.0297872,0.0510638298 35.0808511,0.0510638298 C35.8978723,0.0510638298 36.7148936,0.10212766 37.5319149,0.10212766 C37.787234,0.10212766 37.8893617,0.10212766 38.1446809,0.10212766 C38.1957447,0.10212766 38.2468085,0.10212766 38.2978723,0.10212766 C38.3489362,0.10212766 38.4,0.10212766 38.4510638,0.10212766 C38.6042553,0.10212766 38.6553191,0.204255319 38.6553191,0.306382979 C38.6553191,0.663829787 38.6553191,1.07234043 38.6042553,1.42978723 C38.6042553,1.48085106 38.5531915,1.53191489 38.5531915,1.58297872 C38.5021277,1.63404255 38.4510638,1.63404255 38.4,1.63404255 C38.1957447,1.63404255 37.9404255,1.63404255 37.7361702,1.63404255 C37.3276596,1.63404255 36.9702128,1.63404255 36.5617021,1.63404255 C36.5106383,1.63404255 36.5106383,1.63404255 36.5106383,1.63404255 C36.5106383,1.63404255 36.5106383,1.63404255 36.5106383,1.68510638 C36.5106383,2.55319149 36.4595745,4.03404255 36.4595745,4.90212766 C36.4595745,4.95319149 36.4595745,4.95319149 36.4595745,4.95319149 C36.4595745,4.95319149 36.4595745,4.95319149 36.5106383,4.95319149 C36.9191489,4.95319149 37.2765957,4.95319149 37.6340426,4.95319149 C37.7361702,4.95319149 37.787234,4.95319149 37.8382979,4.95319149 C37.8893617,4.95319149 37.8893617,4.95319149 37.8893617,4.95319149 C37.9404255,4.95319149 37.9404255,4.95319149 37.9404255,4.95319149 C37.9914894,4.95319149 38.0425532,5.00425532 38.093617,5.00425532 C38.1446809,5.05531915 38.1446809,5.10638298 38.1446809,5.15744681 C38.1446809,5.51489362 38.1446809,6.1787234 38.1446809,6.53617021 C38.1446809,6.58723404 38.1446809,6.63829787 38.093617,6.6893617 C38.0425532,6.74042553 37.9914894,6.74042553 37.9404255,6.74042553 C37.5829787,6.74042553 37.4297872,6.74042553 37.0723404,6.74042553 C36.9702128,6.74042553 36.8680851,6.74042553 36.7659574,6.74042553 C36.6638298,6.74042553 36.5106383,6.74042553 36.3574468,6.74042553 C36.3574468,6.74042553 36.306383,6.74042553 36.306383,6.74042553 C36.306383,6.74042553 36.306383,6.74042553 36.306383,6.79148936 C36.306383,7.86382979 36.306383,7.81276596 36.2553191,8.68085106 C36.2553191,8.68085106 36.2553191,8.73191489 36.2553191,8.73191489 C36.2553191,8.73191489 36.2553191,8.73191489 36.306383,8.73191489 C36.8680851,8.73191489 37.4297872,8.78297872 38.1957447,8.78297872 C38.5021277,8.73191489 38.5531915,8.78297872 38.5531915,9.0893617 Z" id="Shape"></path>
                    <path d="M43.7106383,9.19148936 C43.7617021,9.44680851 43.7617021,9.75319149 43.812766,10.0595745 C43.812766,10.1617021 43.812766,10.2638298 43.7617021,10.3148936 C43.7106383,10.3659574 43.6085106,10.3659574 43.506383,10.3659574 C43.3531915,10.3659574 42.2808511,10.3148936 42.1276596,10.3148936 C41.9744681,10.3148936 41.9234043,10.2638298 41.9234043,10.1106383 C41.9234043,9.90638298 41.8723404,9.65106383 41.8723404,9.39574468 C41.8723404,9.19148936 41.8212766,8.93617021 41.8212766,8.68085106 C41.8212766,8.62978723 41.8212766,8.62978723 41.7702128,8.62978723 C41.5148936,8.62978723 41.2595745,8.62978723 40.9531915,8.5787234 C40.9021277,8.5787234 40.9021277,8.5787234 40.9021277,8.62978723 C40.8510638,8.93617021 40.8,9.24255319 40.7489362,9.49787234 C40.6978723,9.70212766 40.6978723,9.85531915 40.6468085,10.0595745 C40.6468085,10.212766 40.493617,10.1617021 40.4425532,10.1617021 C40.1361702,10.1617021 39.3191489,10.1106383 39.2680851,10.1106383 C39.2680851,10.1106383 39.2680851,10.1106383 39.2680851,10.1106383 C39.2170213,10.1106383 39.1659574,10.1106383 39.1148936,10.0595745 C39.0638298,10.0085106 39.0638298,9.95744681 39.0638298,9.90638298 C39.0638298,9.85531915 39.0638298,9.75319149 39.1148936,9.65106383 C39.1148936,9.49787234 39.1659574,9.39574468 39.1659574,9.24255319 C39.2170213,9.03829787 39.2170213,8.88510638 39.2680851,8.68085106 C39.2680851,8.52765957 39.3191489,8.42553191 39.3191489,8.27234043 C39.3191489,8.2212766 39.3191489,8.17021277 39.3702128,8.06808511 C39.4212766,7.65957447 39.5234043,7.25106383 39.5744681,6.84255319 C39.6255319,6.6893617 39.6255319,6.53617021 39.6765957,6.38297872 C39.6765957,6.22978723 39.7276596,6.07659574 39.7276596,5.92340426 C39.7787234,5.56595745 39.8297872,5.25957447 39.8808511,4.95319149 C39.9319149,4.74893617 39.9829787,4.54468085 39.9829787,4.2893617 C39.9829787,4.13617021 40.0340426,3.93191489 40.0851064,3.7787234 C40.1361702,3.52340426 40.187234,3.26808511 40.187234,3.01276596 C40.2382979,2.85957447 40.2382979,2.65531915 40.2893617,2.45106383 C40.3404255,2.19574468 40.3914894,1.99148936 40.3914894,1.73617021 C40.4425532,1.48085106 40.493617,1.17446809 40.5446809,0.970212766 C40.5446809,0.868085106 40.5446809,0.817021277 40.5957447,0.714893617 C40.5957447,0.561702128 40.6468085,0.459574468 40.6468085,0.306382979 C40.6468085,0.204255319 40.7489362,0.153191489 40.8510638,0.153191489 C41.4638298,0.153191489 41.7702128,0.204255319 42.3319149,0.204255319 C42.4340426,0.204255319 42.4851064,0.255319149 42.5361702,0.357446809 C42.587234,0.765957447 42.6382979,1.22553191 42.6893617,1.73617021 C42.6893617,1.8893617 42.7404255,2.09361702 42.7404255,2.24680851 C42.7914894,2.50212766 42.7914894,2.75744681 42.8425532,3.01276596 C42.8425532,3.21702128 42.893617,3.4212766 42.893617,3.62553191 C42.893617,3.82978723 42.9446809,4.08510638 42.9957447,4.2893617 C42.9957447,4.49361702 43.0468085,4.74893617 43.0978723,4.95319149 C43.0978723,5.10638298 43.1489362,5.3106383 43.1489362,5.46382979 C43.1489362,5.61702128 43.2,5.8212766 43.2,5.97446809 C43.2,6.12765957 43.2510638,6.22978723 43.2510638,6.33191489 C43.2510638,6.53617021 43.3021277,6.79148936 43.3531915,6.99574468 C43.3531915,7.14893617 43.4042553,7.35319149 43.4042553,7.55744681 C43.4042553,7.76170213 43.4553191,7.96595745 43.506383,8.2212766 C43.506383,8.42553191 43.5574468,8.5787234 43.5574468,8.78297872 C43.7106383,9.03829787 43.7106383,9.0893617 43.7106383,9.19148936 Z M41.6680851,7.40425532 C41.6680851,7.40425532 41.6680851,7.40425532 41.6680851,7.40425532 C41.6680851,7.35319149 41.7191489,7.35319149 41.6680851,7.40425532 C41.6680851,6.94468085 41.6680851,6.22978723 41.6170213,5.56595745 C41.6170213,4.90212766 41.5659574,4.18723404 41.5148936,3.72765957 C41.4638298,4.13617021 41.3106383,5.8212766 41.1574468,7.35319149 C41.1574468,7.35319149 41.1574468,7.40425532 41.1574468,7.40425532 C41.1574468,7.40425532 41.1574468,7.40425532 41.1574468,7.40425532 C41.3617021,7.35319149 41.4638298,7.35319149 41.6680851,7.40425532 Z" id="Shape"></path>
                    <path d="M48.5106383,0.817021277 C48.5106383,1.12340426 48.5106383,1.42978723 48.4595745,1.78723404 C48.4595745,2.04255319 48.4085106,2.04255319 48.1531915,2.04255319 C47.8468085,2.04255319 47.4893617,2.04255319 47.1319149,1.99148936 C47.0808511,1.99148936 47.0808511,1.99148936 47.0808511,1.99148936 C47.0808511,1.99148936 47.0808511,1.99148936 47.0808511,2.04255319 C47.0808511,2.75744681 47.0297872,3.47234043 47.0297872,3.98297872 C46.9787234,4.54468085 46.9787234,5.05531915 46.9276596,5.61702128 C46.8765957,6.1787234 46.8765957,6.74042553 46.8765957,7.35319149 C46.8765957,7.96595745 46.8255319,8.5787234 46.7744681,9.19148936 C46.7744681,9.49787234 46.7744681,9.80425532 46.7234043,10.0595745 C46.7234043,10.1106383 46.7234043,10.1106383 46.7234043,10.1617021 C46.7234043,10.212766 46.7234043,10.212766 46.7234043,10.2638298 C46.7234043,10.3148936 46.7234043,10.4170213 46.6723404,10.4170213 C46.6212766,10.4680851 46.5702128,10.4680851 46.4680851,10.4680851 C46.3148936,10.4680851 46.1106383,10.4680851 45.906383,10.4680851 C45.7021277,10.4680851 45.4978723,10.4680851 45.293617,10.4170213 C45.2425532,10.4170213 45.2425532,10.4170213 45.1914894,10.4170213 C44.9361702,10.4170213 44.8340426,10.3659574 44.8851064,10.0595745 C44.9361702,8.68085106 44.987234,6.1787234 44.987234,6.02553191 C44.987234,6.02553191 44.987234,6.02553191 44.987234,6.02553191 C44.987234,5.61702128 45.0382979,5.41276596 45.0382979,5.00425532 C45.0893617,4.03404255 45.1404255,3.06382979 45.1404255,2.09361702 C45.1404255,1.99148936 45.1404255,1.94042553 45.1404255,1.8893617 C45.1404255,1.8893617 45.0382979,1.8893617 44.9361702,1.8893617 C44.8340426,1.8893617 44.7319149,1.8893617 44.6297872,1.8893617 C44.4255319,1.8893617 44.2212766,1.83829787 44.0680851,1.8893617 C44.0170213,1.8893617 43.9148936,1.8893617 43.9148936,1.83829787 C43.8638298,1.78723404 43.8638298,1.73617021 43.8638298,1.68510638 C43.8638298,1.32765957 43.8638298,1.0212766 43.9148936,0.612765957 C43.9148936,0.561702128 43.9148936,0.510638298 43.9659574,0.459574468 C44.0170213,0.408510638 44.0680851,0.408510638 44.1702128,0.408510638 C44.5276596,0.408510638 44.8851064,0.408510638 45.2425532,0.459574468 C45.7021277,0.459574468 46.1617021,0.510638298 46.6212766,0.510638298 C47.0297872,0.510638298 47.4382979,0.561702128 47.8468085,0.561702128 C48,0.561702128 48.1021277,0.561702128 48.2553191,0.561702128 C48.4595745,0.561702128 48.5106383,0.612765957 48.5106383,0.817021277 Z" id="Shape"></path>
                    <path d="M53.5148936,3.01276596 C53.5148936,3.47234043 53.412766,5.46382979 53.3617021,5.92340426 C53.3106383,6.28085106 53.2595745,6.63829787 53.106383,6.89361702 C52.9021277,7.25106383 52.6468085,7.45531915 52.2893617,7.50638298 C52.5446809,7.65957447 53.0042553,8.06808511 53.0042553,8.83404255 C53.0042553,9.19148936 53.0042553,9.0893617 53.0042553,9.44680851 C53.0042553,9.70212766 53.0042553,10.0085106 53.0553191,10.3148936 C53.0553191,10.4170213 53.0553191,10.5191489 53.0553191,10.6723404 C53.0553191,10.7234043 53.0553191,10.8255319 53.0042553,10.8765957 C52.9531915,10.9276596 52.9021277,10.9276596 52.8,10.9276596 C52.6468085,10.9276596 52.493617,10.9276596 52.3404255,10.8765957 C52.0851064,10.8765957 51.7787234,10.8255319 51.5234043,10.8255319 C51.4723404,10.8255319 51.3191489,10.8255319 51.2680851,10.6212766 C51.2680851,10.4680851 51.2680851,10.3148936 51.2680851,10.1617021 C51.2680851,9.85531915 51.2680851,8.52765957 51.1148936,8.32340426 C51.0638298,8.2212766 50.9106383,8.17021277 50.8595745,8.17021277 C50.8595745,8.17021277 50.8595745,8.17021277 50.8085106,8.17021277 C50.7574468,8.17021277 50.706383,8.17021277 50.6553191,8.17021277 C50.6042553,8.17021277 50.6042553,8.17021277 50.6042553,8.17021277 C50.6042553,8.17021277 50.6042553,8.17021277 50.6042553,8.2212766 C50.5531915,8.93617021 50.6042553,8.17021277 50.6042553,8.78297872 C50.5531915,9.34468085 50.5531915,9.85531915 50.5021277,10.3659574 C50.5021277,10.4680851 50.5021277,10.4680851 50.5021277,10.5702128 C50.5021277,10.6723404 50.5021277,10.7234043 50.4510638,10.7744681 C50.4,10.8255319 50.3489362,10.8255319 50.2978723,10.8255319 C49.7361702,10.7744681 49.3276596,10.7744681 48.9702128,10.7234043 C48.7659574,10.7234043 48.7148936,10.6723404 48.7148936,10.4680851 C48.7659574,9.85531915 48.7659574,9.24255319 48.8170213,8.62978723 C48.8170213,8.73191489 48.8170213,8.73191489 48.8170213,8.83404255 C48.8170213,8.47659574 48.8680851,8.11914894 48.8680851,7.76170213 C49.0212766,5.00425532 49.0723404,3.62553191 49.2255319,0.919148936 C49.2255319,0.817021277 49.2255319,0.765957447 49.2765957,0.714893617 C49.3276596,0.663829787 49.3787234,0.663829787 49.4808511,0.663829787 C49.5319149,0.663829787 49.6340426,0.663829787 49.6851064,0.663829787 C49.787234,0.663829787 49.9404255,0.663829787 50.093617,0.663829787 C50.6553191,0.714893617 51.2170213,0.714893617 51.7787234,0.765957447 C52.1361702,0.765957447 52.4425532,0.868085106 52.6978723,1.0212766 C53.106383,1.22553191 53.2595745,1.58297872 53.412766,1.8893617 C53.4638298,2.19574468 53.5148936,2.60425532 53.5148936,3.01276596 Z M50.8085106,3.67659574 C50.8085106,4.08510638 50.7574468,4.34042553 50.7574468,4.74893617 C50.7574468,5.15744681 50.6553191,6.33191489 50.6553191,6.6893617 C50.6553191,6.6893617 50.6553191,6.74042553 50.6553191,6.74042553 C50.706383,6.74042553 50.706383,6.74042553 50.7574468,6.74042553 C50.9106383,6.74042553 51.012766,6.74042553 51.1659574,6.74042553 C51.4212766,6.6893617 51.4723404,6.38297872 51.4723404,6.28085106 C51.5234043,5.61702128 51.6765957,3.4212766 51.7276596,2.65531915 C51.7276596,2.4 51.6255319,2.19574468 51.4212766,2.09361702 C51.3702128,2.04255319 51.2680851,2.04255319 51.1659574,2.04255319 C51.1148936,2.04255319 51.0638298,2.04255319 51.012766,2.04255319 C50.9617021,2.04255319 50.9617021,2.04255319 50.9617021,2.04255319 C50.9617021,2.04255319 50.9617021,2.04255319 50.9617021,2.09361702 C50.9617021,2.24680851 50.9617021,2.45106383 50.9106383,2.65531915 C50.8595745,3.11489362 50.8085106,3.62553191 50.8085106,3.67659574 C50.8085106,3.67659574 50.8085106,3.67659574 50.8085106,3.67659574 Z" id="Shape"></path>
                    <path d="M58.4170213,2.96170213 C58.4680851,3.98297872 58.3659574,5.00425532 58.2638298,5.97446809 C58.212766,6.43404255 58.1617021,6.89361702 58.1617021,7.35319149 C58.1617021,7.76170213 58.1106383,8.17021277 58.0595745,8.62978723 C58.0085106,9.0893617 57.9574468,9.54893617 57.8042553,10.0085106 C57.5489362,10.6212766 57.0893617,10.9787234 56.4765957,11.1319149 C56.2212766,11.1829787 55.9659574,11.1829787 55.7106383,11.1829787 C55.506383,11.1829787 55.3021277,11.1319149 55.0978723,11.0808511 C54.4340426,10.8765957 53.9744681,10.4170213 53.8723404,9.75319149 C53.7702128,9.24255319 53.7702128,8.73191489 53.8212766,8.27234043 C53.8723404,7.86382979 53.8723404,7.2 53.9234043,6.94468085 C53.9744681,6.43404255 53.9744681,6.22978723 53.9744681,6.1787234 C53.9744681,5.97446809 54.0255319,5.77021277 54.0255319,5.56595745 C54.0765957,5.05531915 54.0765957,4.54468085 54.1276596,4.08510638 C54.1787234,3.67659574 54.2297872,3.21702128 54.2808511,2.75744681 C54.3829787,2.19574468 54.6382979,1.78723404 54.9957447,1.48085106 C55.2510638,1.27659574 55.506383,1.17446809 55.812766,1.12340426 C56.2723404,1.07234043 56.7319149,1.07234043 57.1404255,1.17446809 C57.6510638,1.32765957 58.0085106,1.63404255 58.212766,2.09361702 C58.3148936,2.29787234 58.4170213,2.65531915 58.4170213,2.96170213 Z M55.6595745,6.58723404 C55.6085106,6.99574468 55.6085106,7.45531915 55.5574468,7.86382979 C55.506383,8.47659574 55.4553191,9.0893617 55.4553191,9.54893617 C55.4553191,9.70212766 55.506383,9.80425532 55.6595745,9.85531915 C55.7617021,9.90638298 55.9148936,9.90638298 56.0170213,9.80425532 C56.0680851,9.70212766 56.1191489,9.6 56.1191489,9.54893617 C56.1702128,9.29361702 56.1702128,8.98723404 56.1702128,8.73191489 C56.1702128,8.68085106 56.1702128,8.62978723 56.1702128,8.5787234 C56.1702128,8.27234043 56.2212766,8.01702128 56.2723404,7.7106383 C56.3234043,6.89361702 56.4255319,6.02553191 56.4765957,5.20851064 C56.5276596,4.49361702 56.5787234,3.82978723 56.5787234,3.11489362 C56.5787234,2.9106383 56.5787234,2.80851064 56.5787234,2.65531915 C56.5787234,2.50212766 56.4765957,2.4 56.3234043,2.34893617 C56.1702128,2.29787234 56.0170213,2.4 55.9659574,2.50212766 C55.9148936,2.65531915 55.9148936,2.70638298 55.8638298,2.85957447 C55.812766,3.4212766 55.7617021,4.18723404 55.7106383,4.85106383 C55.6595745,5.15744681 55.6595745,5.46382979 55.6595745,5.71914894 C55.6595745,5.8212766 55.6085106,5.92340426 55.6085106,5.97446809 C55.6085106,6.02553191 55.6085106,6.02553191 55.6085106,6.07659574 C55.7106383,6.1787234 55.7106383,6.38297872 55.6595745,6.58723404 Z" id="Shape"></path>
                </g>
            </g>
        </g>
    </g>
</svg>