<?xml version="1.0" encoding="UTF-8"?>
<svg width="84px" height="96px" viewBox="0 0 84 96" version="1.1" xmlns="http://www.w3.org/2000/svg" xmlns:xlink="http://www.w3.org/1999/xlink">
    <!-- Generator: Sketch 49 (51002) - http://www.bohemiancoding.com/sketch -->
    <title>Group</title>
    <desc>Created with Sketch.</desc>
    <defs></defs>
    <g id="Page-1" stroke="none" stroke-width="1" fill="none" fill-rule="evenodd">
        <g id="noun_Download_1319223" transform="translate(-88.000000, -1.000000)" fill="#000000" fill-rule="nonzero">
            <g id="Group" transform="translate(88.000000, 0.637820)">
                <path d="M0.4149989,72.7736 L0.4149989,93.3836 C0.415109336,94.4881238 1.31047521,95.3834896 2.414999,95.3836 L81.584999,95.3836 C82.6895228,95.3834896 83.5848886,94.4881238 83.584999,93.3836 L83.584999,72.7736 C83.5951996,72.0523282 83.2162484,71.3814373 82.5932533,71.0178246 C81.9702582,70.6542118 79.1997398,70.6542118 78.5767447,71.0178246 C77.9537496,71.3814373 77.5747984,72.0523282 77.584999,72.7736 L77.584999,89.3836 L6.414999,89.3836 L6.414999,72.7736 C6.42259991,72.2330893 6.21110484,71.7125156 5.82868937,71.330458 C5.44627391,70.9484005 2.92550231,70.737393 2.384999,70.7455 C1.28117631,70.7620587 0.399476187,71.6697623 0.4149989,72.7736 Z" id="Shape"></path>
                <path d="M40.5598575,0.948858253 C40.1906536,1.32979266 38.9878992,1.84179214 38.996199,2.37222 L38.996199,74.3409 L23.964899,58.4972 C23.4603292,57.9777755 22.7144163,57.7716343 22.014725,57.958248 C21.3150338,58.1448617 19.7708493,59.695083 19.5919659,60.3967903 C19.4130824,61.0984977 19.6274398,61.842091 20.152399,62.3409 L40.589899,82.5597 C41.3691356,83.3300816 42.6231624,83.3300816 43.402399,82.5597 L63.839899,62.3409 C64.3648582,61.842091 64.5792156,61.0984977 64.4003321,60.3967903 C64.2214487,59.695083 62.6772642,58.1448617 61.977573,57.958248 C61.2778817,57.7716343 60.5319688,57.9777755 60.027399,58.4972 L44.996199,74.3409 L44.996199,2.37222 C45.0046691,1.83093814 44.7933771,1.30933822 44.4105814,0.926551994 C44.0277858,0.543765771 42.5061807,0.332486612 41.964899,0.34097 C41.434471,0.349259494 40.9290615,0.567923844 40.5598575,0.948858253 Z" id="Shape"></path>
            </g>
        </g>
    </g>
</svg>