<?xml version="1.0" encoding="UTF-8"?>
<svg width="139px" height="127px" viewBox="0 0 139 127" version="1.1" xmlns="http://www.w3.org/2000/svg" xmlns:xlink="http://www.w3.org/1999/xlink">
    <!-- Generator: Sketch 49 (51002) - http://www.bohemiancoding.com/sketch -->
    <title>Group 14</title>
    <desc>Created with Sketch.</desc>
    <defs></defs>
    <g id="Page-1" stroke="none" stroke-width="1" fill="none" fill-rule="evenodd">
        <g id="Home" transform="translate(-971.000000, -256.000000)" fill-rule="nonzero">
            <g id="Infos" transform="translate(729.000000, 167.000000)">
                <g id="Text" transform="translate(9.000000, 0.000000)">
                    <g id="Group-14" transform="translate(233.000000, 67.000000)">
                        <path d="M70.8950267,32.8226681 C72.5537246,31.3562378 73.4752234,29.2129937 74.3045723,26.9569472 C74.9496214,25.15211 75.4103708,23.2344705 76.05542,21.4296333 C77.621968,17.0303426 80.4786142,13.0822613 83.8881598,10.8262148 C83.7960099,11.5030287 83.70386,11.954238 83.6117101,12.4054473 C82.5059116,16.6919356 82.0451622,20.978424 81.7687125,25.490517 C81.6765627,28.0849704 81.2158133,30.6794239 80.2943145,33.0482727 C79.2806658,35.6427262 77.8984176,37.7859703 75.8711202,39.2524006 C74.3045723,40.3804238 72.8301742,41.9596564 72.0008253,43.9900982 C71.5400759,45.0053191 71.2636262,46.2461447 70.8028768,47.7125749 C72.2772749,48.0509819 73.3830735,48.2765865 74.5810219,48.5021912 C77.2533684,49.1790051 79.3728157,50.532633 80.1100147,54.2551097 C80.2943145,55.1575283 81.1236634,55.9471446 81.5844128,56.7367609 C76.5161694,56.9623655 71.6322258,57.6391795 67.0247318,61.1360515 C67.4854812,62.0384701 67.6697809,62.7152841 68.1305303,63.2792957 C69.6970783,65.8737492 69.9735279,68.581005 68.7755795,71.4010631 C67.6697809,73.9955165 66.4718325,76.7027723 64.9052845,78.9588188 C60.8506898,85.0501443 55.6902966,89.2238303 50.0691539,92.7207024 C49.8848541,92.8335047 49.7005544,92.7207024 49.3319548,92.8335047 C50.2534536,89.787842 51.9121515,87.5317955 53.7551491,85.5013536 C55.2295472,83.9221211 56.6117954,82.1172839 57.3489944,79.7484351 C57.4411443,79.4100281 57.5332941,79.0716211 57.5332941,78.7332142 C55.9667462,80.763656 54.4001982,82.6812955 52.8336503,84.598935 C52.3729009,85.1629467 51.7278517,85.5013536 50.8063529,86.1781676 C52.4650508,81.102063 53.847299,76.58997 55.321697,72.077877 C55.2295472,71.9650747 55.0452474,71.8522724 54.9530975,71.8522724 C53.847299,73.8827142 52.7415004,75.8003537 51.6357018,77.8307956 C50.4377534,75.0107375 50.6220532,73.2059003 52.3729009,67.0017724 C51.543552,68.3554003 50.714203,69.7090282 49.8848541,70.9498538 C48.7790556,68.6938073 48.9633553,66.6633654 51.1749524,61.9256678 C50.5299033,62.3768771 50.0691539,62.7152841 49.7927042,62.9408887 C49.4241047,63.2792957 49.1476551,63.6177027 48.7790556,63.9561096 C48.2261563,62.2640748 48.2261563,62.2640748 49.239805,56.2855516 C47.7654069,55.383133 46.106709,55.2703307 44.5401611,55.6087376 C41.7756647,56.0599469 39.0111683,56.6239585 36.2466719,57.3007725 C32.2842271,58.3159934 28.3217822,59.556819 24.4514873,60.5720399 C24.2671875,60.5720399 24.1750376,60.6848422 23.9907379,60.6848422 C21.5026911,61.2488539 20.7654921,60.6848422 20.2125928,57.7519818 C20.028293,56.8495632 20.028293,56.0599469 19.8439933,54.8191214 C23.161389,54.2551097 26.2944849,53.5782958 29.4275808,53.0142842 C29.4275808,52.9014818 29.4275808,52.7886795 29.4275808,52.5630749 C26.2944849,52.6758772 23.161389,52.9014818 19.8439933,53.1270865 C19.5675437,50.6454353 20.1204429,48.6149935 20.857642,46.358947 C23.7142882,46.8101563 26.5709345,47.3741679 29.3354309,47.8253772 C29.3354309,47.7125749 29.3354309,47.5997726 29.4275808,47.4869703 C26.8473842,46.697354 24.1750376,45.7949354 21.594841,45.0053191 C22.4241899,41.7340517 23.161389,41.3956447 25.6494357,42.2980633 C30.6255292,44.1029005 35.5094729,45.9077377 40.4855664,47.5997726 C43.2500628,48.5021912 46.1988589,48.5021912 49.0555052,47.5997726 C51.2671023,46.9229586 51.4514021,46.4717493 51.543552,43.6516912 C51.6357018,40.7188308 52.0043014,37.8987727 53.3865496,35.4171215 C53.4786994,35.1915169 53.6629992,34.9659122 53.847299,34.8531099 C53.847299,34.8531099 53.9394488,34.8531099 54.2158985,34.8531099 C54.4923481,36.3195401 54.6766479,37.673168 54.9530975,39.1395982 C55.6902966,34.9659122 56.6117954,31.1306332 60.2056407,28.987389 C60.2056407,31.3562378 60.2056407,33.6122843 60.2056407,35.7555285 C60.8506898,30.0026099 63.2465867,25.9417263 68.1305303,23.6856798 C67.3933313,25.3777146 66.7482821,26.6185402 66.2875327,28.0849704 C65.8267833,29.5514007 65.5503337,31.1306332 65.4581838,32.8226681 C67.3933313,26.0545286 70.8028768,20.7528193 75.7789704,17.1431449 C75.318221,19.1735868 72.5537246,28.7617844 70.8950267,32.8226681 Z" id="Shape" fill="#222222" transform="translate(51.829860, 51.829860) rotate(-135.000000) translate(-51.829860, -51.829860) "></path>
                        <path d="M63.4001835,121.836048 C63.7856584,122.478507 64.1711332,123.120965 64.4923623,123.763423 C63.91415,121.19359 63.5929209,118.623758 64.8135913,115.861188 C65.263312,117.146104 65.5845411,118.238283 65.9700159,119.266216 C65.7772785,116.375155 65.7130327,113.612585 68.0258818,111.106998 C68.1543735,112.970127 68.2828651,114.640518 68.4113567,116.310909 C68.4756025,116.310909 68.4756025,116.310909 68.5398483,116.310909 C68.7968316,114.640518 68.989569,112.970127 69.4392897,111.363981 C69.9532561,109.629345 71.1096807,108.344428 73.2940383,107.70197 C72.2661053,110.079065 71.2381723,112.199177 71.2381723,114.704764 C72.1376137,112.905881 72.8443176,111.171244 73.8080047,109.629345 C74.7716919,108.023199 76.1850997,106.802529 78.3694573,106.609791 C78.112474,107.123758 77.9197366,107.444987 77.7269992,107.766216 C75.9281165,110.978507 74.9001835,114.512026 74.386217,118.109791 C74.064988,120.101412 74.0007422,122.093032 74.0007422,124.084652 C74.0007422,125.626551 74.5789545,126.140518 76.0566081,126.525993 C76.763312,126.71873 77.4700159,126.782976 78.1767198,127.039959 C79.3973902,127.425434 80.2325858,128.196384 80.5538148,129.4813 C80.810798,130.380741 81.0035355,131.215937 81.3247645,132.372361 C79.5901277,131.280183 77.9197366,131.601412 76.2493455,131.922641 C74.9001835,132.179624 73.9364964,132.886328 73.8722506,134.299736 C73.8080047,136.933814 73.6795131,139.567892 73.8722506,142.137724 C74.1292338,145.606998 75.1571668,149.012026 76.6348204,152.160071 C76.6990662,152.288562 76.6990662,152.4813 76.763312,152.609791 C74.386217,152.352808 72.6515802,149.911467 70.9169433,145.028786 C71.1096807,145.992473 71.2381723,147.020406 71.5594014,147.919847 C71.8163846,148.883534 72.2018595,149.847222 72.6515802,151.003646 C70.7242059,150.425434 69.3750439,149.333255 68.8610774,147.598618 C68.4113567,145.992473 68.2186193,144.322082 67.961636,142.458953 C67.7688986,144.065099 67.640407,145.542752 67.5119154,146.95616 C65.5845411,146.18521 65.1348204,144.257836 65.5202953,139.696384 C65.1348204,140.403088 64.8135913,141.174037 64.2996249,142.137724 C63.4001835,139.503646 63.9783958,137.319289 64.6208539,134.942194 C64.2353791,135.391914 63.91415,135.905881 63.5286751,136.355602 C63.4644293,136.355602 63.3359377,136.291356 63.2716919,136.291356 C63.2716919,135.648898 63.2716919,135.00644 63.2716919,134.363981 C63.2074461,133.721523 63.2074461,133.143311 63.0147087,132.565099 C62.7577254,131.537166 62.4364964,131.215937 61.4085634,131.280183 C59.4811891,131.344428 57.6180606,131.47292 55.7549321,131.729903 C53.2493455,131.986886 50.8080047,132.436607 48.3024182,132.757836 C47.5314684,132.115378 47.5957142,131.215937 47.4029768,130.123758 C49.8443176,129.931021 52.1571668,129.738283 54.4700159,129.545546 C54.4700159,129.4813 54.4700159,129.417054 54.4700159,129.417054 C52.1571668,129.288562 49.7800718,129.160071 47.4029768,129.031579 C47.4029768,128.517613 47.338731,128.196384 47.4029768,127.875155 C47.5957142,126.461747 47.9169433,126.269009 49.3945969,126.461747 C52.7353791,126.911467 56.0761612,127.48968 59.4811891,127.296942 C60.187893,127.232697 60.8945969,127.168451 61.6013008,127.039959 C62.7577254,126.847222 62.9504628,126.654484 63.0147087,125.433814 C63.1432003,124.213143 63.2074461,122.992473 63.2716919,121.836048 C63.2716919,121.900294 63.3359377,121.900294 63.4001835,121.836048 Z" id="Shape" fill="#000000" transform="translate(64.349594, 129.609791) rotate(-165.000000) translate(-64.349594, -129.609791) "></path>
                        <path d="M123.400184,71.8360485 C123.785658,72.4785066 124.171133,73.1209647 124.492362,73.7634228 C123.91415,71.1935904 123.592921,68.623758 124.813591,65.8611881 C125.263312,67.1461043 125.584541,68.2382831 125.970016,69.2662161 C125.777278,66.3751546 125.713033,63.6125848 128.025882,61.1069982 C128.154373,62.9701267 128.282865,64.6405177 128.411357,66.3109088 C128.475603,66.3109088 128.475603,66.3109088 128.539848,66.3109088 C128.796832,64.6405177 128.989569,62.9701267 129.43929,61.3639814 C129.953256,59.6293445 131.109681,58.3444283 133.294038,57.7019702 C132.266105,60.0790652 131.238172,62.199177 131.238172,64.7047635 C132.137614,62.9058809 132.844318,61.171244 133.808005,59.6293445 C134.771692,58.0231993 136.1851,56.8025289 138.369457,56.6097915 C138.112474,57.123758 137.919737,57.444987 137.726999,57.7662161 C135.928116,60.9785066 134.900184,64.5120261 134.386217,68.1097915 C134.064988,70.1014116 134.000742,72.0930317 134.000742,74.0846518 C134.000742,75.6265513 134.578954,76.1405177 136.056608,76.5259926 C136.763312,76.71873 137.470016,76.7829758 138.17672,77.0399591 C139.39739,77.4254339 140.232586,78.1963837 140.553815,79.4812999 C140.810798,80.3807412 141.003535,81.2159367 141.324765,82.3723613 C139.590128,81.2801825 137.919737,81.6014116 136.249346,81.9226406 C134.900184,82.1796239 133.936496,82.8863278 133.872251,84.2997356 C133.808005,86.9338138 133.679513,89.567892 133.872251,92.1377244 C134.129234,95.6069982 135.157167,99.0120261 136.63482,102.160071 C136.699066,102.288562 136.699066,102.4813 136.763312,102.609791 C134.386217,102.352808 132.65158,99.9114675 130.916943,95.0287859 C131.109681,95.992473 131.238172,97.020406 131.559401,97.9198473 C131.816385,98.8835345 132.201859,99.8472216 132.65158,101.003646 C130.724206,100.425434 129.375044,99.3332552 128.861077,97.5986183 C128.411357,95.992473 128.218619,94.322082 127.961636,92.4589535 C127.768899,94.0650987 127.640407,95.5427524 127.511915,96.9561602 C125.584541,96.1852105 125.13482,94.2578362 125.520295,89.6963837 C125.13482,90.4030876 124.813591,91.1740373 124.299625,92.1377244 C123.400184,89.5036462 123.978396,87.3192887 124.620854,84.9421937 C124.235379,85.3919144 123.91415,85.9058809 123.528675,86.3556015 C123.464429,86.3556015 123.335938,86.2913557 123.271692,86.2913557 C123.271692,85.6488976 123.271692,85.0064395 123.271692,84.3639814 C123.207446,83.7215233 123.207446,83.143311 123.014709,82.5650987 C122.757725,81.5371658 122.436496,81.2159367 121.408563,81.2801825 C119.481189,81.3444283 117.618061,81.47292 115.754932,81.7299032 C113.249346,81.9868864 110.808005,82.4366071 108.302418,82.7578362 C107.531468,82.1153781 107.595714,81.2159367 107.402977,80.123758 C109.844318,79.9310205 112.157167,79.7382831 114.470016,79.5455457 C114.470016,79.4812999 114.470016,79.417054 114.470016,79.417054 C112.157167,79.2885624 109.780072,79.1600708 107.402977,79.0315792 C107.402977,78.5176127 107.338731,78.1963837 107.402977,77.8751546 C107.595714,76.4617468 107.916943,76.2690094 109.394597,76.4617468 C112.735379,76.9114675 116.076161,77.4896797 119.481189,77.2969423 C120.187893,77.2326965 120.894597,77.1684507 121.601301,77.0399591 C122.757725,76.8472216 122.950463,76.6544842 123.014709,75.4338138 C123.1432,74.2131434 123.207446,72.992473 123.271692,71.8360485 C123.271692,71.9002943 123.335938,71.9002943 123.400184,71.8360485 Z" id="Shape" fill="#000000" transform="translate(124.349594, 79.609791) rotate(-120.000000) translate(-124.349594, -79.609791) "></path>
                    </g>
                </g>
            </g>
        </g>
    </g>
</svg>