<?xml version="1.0" encoding="utf-8"?>
<title>Robert Houdin - Pra la de Marrakech</title>
<svg version="1.1" id="Layer_1" xmlns="http://www.w3.org/2000/svg" xmlns:xlink="http://www.w3.org/1999/xlink" x="0px" y="0px"
	 viewBox="0 0 704 304" style="enable-background:new 0 0 704 304;" xml:space="preserve">
<g>
	<g>
		<path d="M142.2,85.5l5.6-4.1c0.2-0.2,0.4-0.4,0.4-0.7V22.3c0-0.3-0.1-0.6-0.4-0.7l-5.6-4.1c-0.7-0.5-0.3-1.6,0.5-1.6h28.6
			c18.1,0,30.8,6,30.8,19.8c0,9.2-5.7,14.8-14.9,17.4c-0.6,0.2-0.9,0.9-0.5,1.4L205.9,81c0,0.1,0.1,0.1,0.2,0.2l5.2,4.4
			c0.6,0.5,0.3,1.6-0.6,1.6h-19.7c-0.3,0-0.6-0.1-0.7-0.4l-21.9-31.6c-0.2-0.2-0.4-0.4-0.7-0.4h-2.8v25.9c0,0.3,0.2,0.6,0.4,0.8
			l6.4,4.1c0.8,0.5,0.4,1.7-0.5,1.7h-28.2C141.9,87.2,141.5,86,142.2,85.5z M164.7,50.9h3.3c9.9,0,16.5-4.9,16.5-15.4
			s-6.6-15.9-16.5-15.9h-3.3V50.9z"/>
		<path d="M248.2,14.1c22,0,34.6,16.7,34.6,37.3c0,20.6-12.6,37.3-34.6,37.3s-34.6-16.7-34.6-37.3C213.6,30.8,226.2,14.1,248.2,14.1
			z M248.2,85.5c9.9,0,16.5-12.1,16.5-34.1c0-22-6.6-34.1-16.5-34.1c-9.9,0-16.5,12.1-16.5,34.1C231.7,73.4,238.3,85.5,248.2,85.5z"
			/>
		<path d="M296.5,80.7V22.3c0-0.3-0.1-0.6-0.4-0.7l-5.6-4.1c-0.7-0.5-0.3-1.6,0.5-1.6h32.4c15.9,0,26.9,4.9,26.9,17
			c0,14.3-17.6,15.9-17.6,15.9v0.5c0,0,20.9,0.5,20.9,18.1c0,13.7-11.5,19.8-29.7,19.8H291c-0.9,0-1.2-1.1-0.5-1.6l5.6-4.1
			C296.4,81.2,296.5,80.9,296.5,80.7z M313,46.7c0,0.5,0.4,0.9,0.9,0.9h6.2c8.2,0,12.5-5.2,13.1-12.6c0.7-8.3-6.1-15.4-14.5-15.4
			h-2.2c-0.2,0-0.4,0.1-0.5,0.2l-2.7,1.8c-0.3,0.2-0.4,0.4-0.4,0.8V46.7z M313,52.4v28.3c0,0.3,0.2,0.6,0.4,0.8l2.7,1.8
			c0.1,0.1,0.3,0.2,0.5,0.2l2.6,0c9.5,0,17.3-7.8,16.8-17.2c-0.5-9.6-6.4-14.6-15.9-14.6h-6.2C313.4,51.5,313,51.9,313,52.4z"/>
		<path d="M384.7,48.2h8c0.3,0,0.6-0.1,0.7-0.4l6.9-9.5c0.5-0.7,1.6-0.3,1.6,0.5v22.5c0,0.9-1.1,1.2-1.6,0.5l-6.9-9.5
			c-0.2-0.2-0.4-0.4-0.7-0.4h-8c-0.5,0-0.9,0.4-0.9,0.9v27.7c0,0.3,0.2,0.6,0.4,0.8l2.7,1.8c0.1,0.1,0.3,0.2,0.5,0.2h17.9
			c0.3,0,0.6-0.2,0.8-0.4l12.3-19.5c0.5-0.8,1.7-0.4,1.7,0.5v22.4c0,0.5-0.4,0.9-0.9,0.9h-57.3c-0.9,0-1.2-1.1-0.5-1.6l5.6-4.1
			c0.2-0.2,0.4-0.4,0.4-0.7V22.3c0-0.3-0.1-0.6-0.4-0.7l-5.6-4.1c-0.7-0.5-0.3-1.6,0.5-1.6h55.7c0.5,0,0.9,0.4,0.9,0.9V39
			c0,0.9-1.2,1.2-1.7,0.5L404.4,20c-0.2-0.3-0.5-0.4-0.8-0.4h-16.3c-0.2,0-0.4,0.1-0.5,0.2l-2.7,1.8c-0.3,0.2-0.4,0.4-0.4,0.8v25
			C383.8,47.8,384.2,48.2,384.7,48.2z"/>
		<path d="M430.5,85.5l5.6-4.1c0.2-0.2,0.4-0.4,0.4-0.7V22.3c0-0.3-0.1-0.6-0.4-0.7l-5.6-4.1c-0.7-0.5-0.3-1.6,0.5-1.6h28.6
			c18.1,0,30.8,6,30.8,19.8c0,9.2-5.7,14.8-14.9,17.4c-0.6,0.2-0.9,0.9-0.5,1.4L494.2,81c0,0.1,0.1,0.1,0.2,0.2l5.2,4.4
			c0.6,0.5,0.3,1.6-0.6,1.6h-19.7c-0.3,0-0.6-0.1-0.7-0.4l-21.9-31.6c-0.2-0.2-0.4-0.4-0.7-0.4H453v25.9c0,0.3,0.2,0.6,0.4,0.8
			l6.4,4.1c0.8,0.5,0.4,1.7-0.5,1.7h-28.2C430.2,87.2,429.8,86,430.5,85.5z M453,50.9h3.3c9.9,0,16.5-4.9,16.5-15.4
			s-6.6-15.9-16.5-15.9H453V50.9z"/>
		<path d="M562.9,39.5L550.5,20c-0.2-0.3-0.5-0.4-0.8-0.4h-7.4c-0.5,0-0.9,0.4-0.9,0.9v60.1c0,0.3,0.2,0.6,0.4,0.8l6.7,4.1
			c0.8,0.5,0.4,1.7-0.5,1.7h-29.8c-0.9,0-1.2-1.2-0.5-1.7l6.7-4.1c0.3-0.2,0.4-0.5,0.4-0.8V20.5c0-0.5-0.4-0.9-0.9-0.9h-7.4
			c-0.3,0-0.6,0.2-0.8,0.4l-12.3,19.5c-0.5,0.8-1.7,0.4-1.7-0.5V16.7c0-0.5,0.4-0.9,0.9-0.9h60.8c0.5,0,0.9,0.4,0.9,0.9V39
			C564.5,39.9,563.3,40.3,562.9,39.5z"/>
	</g>
	<g>
		<path d="M121.7,134.2v92.9c0,0.4,0.2,0.7,0.4,0.9l9.9,7.3c0.9,0.6,0.4,2-0.7,2H85.9c-1.1,0-1.5-1.4-0.7-2l9.9-7.3
			c0.3-0.2,0.4-0.5,0.4-0.9v-44.5c0-0.6-0.5-1.1-1.1-1.1H54.9c-0.6,0-1.1,0.5-1.1,1.1v44.5c0,0.4,0.2,0.7,0.4,0.9l9.9,7.3
			c0.9,0.6,0.4,2-0.7,2H18c-1.1,0-1.5-1.4-0.7-2l9.9-7.3c0.3-0.2,0.4-0.5,0.4-0.9v-92.9c0-0.4-0.2-0.7-0.4-0.9l-9.9-7.3
			c-0.9-0.6-0.4-2,0.7-2h45.5c1.1,0,1.5,1.4,0.7,2l-9.9,7.3c-0.3,0.2-0.4,0.5-0.4,0.9v40.1c0,0.6,0.5,1.1,1.1,1.1h39.6
			c0.6,0,1.1-0.5,1.1-1.1v-40.1c0-0.4-0.2-0.7-0.4-0.9l-9.9-7.3c-0.9-0.6-0.4-2,0.7-2h45.5c1.1,0,1.5,1.4,0.7,2l-9.9,7.3
			C121.8,133.6,121.7,133.9,121.7,134.2z"/>
		<path d="M198.2,121.5c34.8,0,54.8,26.5,54.8,59.2c0,32.7-20,59.2-54.8,59.2s-54.8-26.5-54.8-59.2
			C143.4,147.9,163.4,121.5,198.2,121.5z M198.2,234.6c15.7,0,26.1-19.1,26.1-53.9c0-34.8-10.4-53.9-26.1-53.9
			c-15.7,0-26.1,19.1-26.1,53.9C172.1,215.5,182.6,234.6,198.2,234.6z"/>
		<path d="M300.9,198.1c0,16.5,9,30.5,29.1,30.5s29.2-13.9,29.2-30.5v-60.4c0-0.3-0.2-0.7-0.4-0.9l-14.3-10.7c-0.8-0.6-0.4-2,0.7-2
			h35.2c1.1,0,1.5,1.3,0.7,2l-14.3,10.7c-0.3,0.2-0.4,0.5-0.4,0.9V196c0,23.8-13.1,43.9-41.8,43.9c-35.7,0-49.6-20-49.6-45.6v-60
			c0-0.4-0.2-0.7-0.4-0.9l-9.9-7.3c-0.9-0.6-0.4-2,0.7-2h45.5c1.1,0,1.5,1.4,0.7,2l-9.9,7.3c-0.3,0.2-0.4,0.5-0.4,0.9V198.1z"/>
		<path d="M440.2,124.1c34.8,0,57.4,23.8,57.4,56.6c0,32.7-22.6,56.6-57.4,56.6h-50.6c-1.1,0-1.5-1.4-0.7-2l9.9-7.3
			c0.3-0.2,0.4-0.5,0.4-0.9v-92.9c0-0.4-0.2-0.7-0.4-0.9l-9.9-7.3c-0.9-0.6-0.4-2,0.7-2H440.2z M425.4,131.3V230
			c0,0.6,0.5,1.1,1.1,1.1h9.3c15.7,0,33.1-15.7,33.1-50.5c0-34.8-17.4-50.5-33.1-50.5h-9.3C425.9,130.2,425.4,130.7,425.4,131.3z"/>
		<path d="M540.6,134.2v92.9c0,0.4,0.2,0.7,0.4,0.9l9.9,7.3c0.9,0.6,0.4,2-0.7,2h-45.5c-1.1,0-1.5-1.4-0.7-2l9.9-7.3
			c0.3-0.2,0.4-0.5,0.4-0.9v-92.9c0-0.4-0.2-0.7-0.4-0.9l-9.9-7.3c-0.9-0.6-0.4-2,0.7-2h45.5c1.1,0,1.5,1.4,0.7,2l-9.9,7.3
			C540.7,133.6,540.6,133.9,540.6,134.2z"/>
		<path d="M665.1,136.8l-15.7-10.7c-0.9-0.6-0.5-2,0.6-2h36.6c1.1,0,1.5,1.3,0.7,2l-14.3,10.7c-0.3,0.2-0.4,0.5-0.4,0.9v99.4
			c0,1-1.2,1.5-1.9,0.8l-81.5-84c-0.7-0.7-1.9-0.2-1.9,0.8v68.9c0,0.4,0.2,0.7,0.5,0.9l15.7,10.7c0.9,0.6,0.5,2-0.6,2h-36.6
			c-1.1,0-1.5-1.3-0.7-2l14.3-10.7c0.3-0.2,0.4-0.5,0.4-0.9v-78.4c0-0.3-0.1-0.6-0.3-0.8L562.1,126c-0.7-0.7-0.2-1.9,0.8-1.9h32.3
			c0.3,0,0.6,0.1,0.8,0.3l67.7,69.8c0.7,0.7,1.9,0.2,1.9-0.8v-55.7C665.5,137.4,665.4,137,665.1,136.8z"/>
	</g>
	<rect x="14.1" y="50" width="107.4" height="2.9"/>
	<rect x="582.5" y="50" width="107.4" height="2.9"/>
	<g>
		<path d="M113.7,289.4l3.1-1.7v-16.9l-3.1-1.7h8.4c4.5,0,8.1,1.6,8.1,5.5s-3.6,5.5-8.1,5.5h-2.3v7.6l3.7,1.7H113.7z M119.8,279h2
			c2.8,0,5-0.9,5-4.4s-2.2-4.4-5-4.4h-2V279z"/>
		<path d="M146.5,280.1h-1.9v7.6l3.1,1.7h-9.2l3.1-1.7v-16.9l-3.1-1.7h8.4c4.5,0,8.1,1.6,8.1,5.5c0,3-2.1,4.6-5.1,5.2l6.4,7.9
			l2.8,1.7h-5.3L146.5,280.1z M144.6,279h2c2.8,0,5-0.9,5-4.4s-2.2-4.4-5-4.4h-2V279z"/>
		<path d="M167.5,287.7l6.4-15.1l-3-3.4h4.6l7.7,18.4l3.1,1.9h-8.7l2.7-1.6l-2-4.8h-7.5l-2,4.8l2.8,1.6h-7.3L167.5,287.7z
			 M171.2,281.9h6.6l-3.3-8L171.2,281.9z"/>
		<path d="M214.5,270.9v16.9l1.1,0.6h6.4l3-5.8v6.9h-16.5l3.1-1.7v-16.9l-3.1-1.7h9.5L214.5,270.9z"/>
		<path d="M235.7,287.7l6.4-15.1l-3-3.4h4.6l7.7,18.4l3.1,1.9h-8.7l2.7-1.6l-2-4.8H239l-2,4.8l2.8,1.6h-7.3L235.7,287.7z
			 M239.4,281.9h6.6l-3.3-8L239.4,281.9z"/>
		<path d="M276.6,289.4l3.1-1.7v-16.9l-3.1-1.7h8.3c5.5,0,10.8,3.1,10.8,10.1c0,7-5.3,10.1-10.8,10.1H276.6z M282.7,287.7l1.1,0.6
			h1.1c3.7,0,7.3-2.5,7.3-9c0-6.6-3.6-9-7.3-9h-1.1l-1.1,0.6V287.7z"/>
		<path d="M310.2,278.3h3.9l2.2-3.3v7.6l-2.2-3.3h-3.9v8.3l1.1,0.6h6.7l2.8-5.5v6.6h-16.7l3.1-1.7v-16.9l-3.1-1.7h16.2v6.6l-2.8-5.5
			h-6.2l-1.1,0.6V278.3z"/>
		<path d="M348.1,287.7v-16.9l-3.1-1.7h6.2l6.5,15.4h0l6.5-15.4h6.3l-3.1,1.7v16.9l3.1,1.7h-9.2l3.1-1.7v-15.8l-7.6,17.9l-7.3-17.3
			v15.1l3.1,1.7H345L348.1,287.7z"/>
		<path d="M380.5,287.7l6.4-15.1l-3-3.4h4.6l7.7,18.4l3.1,1.9h-8.7l2.7-1.6l-2-4.8h-7.5l-2,4.8l2.8,1.6h-7.3L380.5,287.7z
			 M384.2,281.9h6.6l-3.3-8L384.2,281.9z"/>
		<path d="M414.4,280.1h-1.9v7.6l3.1,1.7h-9.2l3.1-1.7v-16.9l-3.1-1.7h8.4c4.5,0,8.1,1.6,8.1,5.5c0,3-2.1,4.6-5.1,5.2l6.4,7.9
			l2.8,1.7h-5.3L414.4,280.1z M412.5,279h2c2.8,0,5-0.9,5-4.4s-2.2-4.4-5-4.4h-2V279z"/>
		<path d="M441.3,280.1h-1.9v7.6l3.1,1.7h-9.2l3.1-1.7v-16.9l-3.1-1.7h8.4c4.5,0,8.1,1.6,8.1,5.5c0,3-2.1,4.6-5.1,5.2l6.4,7.9
			l2.8,1.7h-5.3L441.3,280.1z M439.3,279h2c2.8,0,5-0.9,5-4.4s-2.2-4.4-5-4.4h-2V279z"/>
		<path d="M462.3,287.7l6.4-15.1l-3-3.4h4.6l7.7,18.4l3.1,1.9h-8.7l2.7-1.6l-2-4.8h-7.5l-2,4.8l2.8,1.6H459L462.3,287.7z M466,281.9
			h6.6l-3.3-8L466,281.9z"/>
		<path d="M494.3,270.9v7.6l8.1-7.7l-2.1-1.6h8l-4.8,2l-6.6,6.6l9.5,10l2.5,1.7h-5l-9.7-10.3v8.6l3.1,1.7h-9.2l3.1-1.7v-16.9
			l-3.1-1.7h9.2L494.3,270.9z"/>
		<path d="M522.3,278.3h3.9l2.2-3.3v7.6l-2.2-3.3h-3.9v8.3l1.1,0.6h6.7l2.8-5.5v6.6h-16.7l3.1-1.7v-16.9l-3.1-1.7h16.2v6.6l-2.8-5.5
			h-6.2l-1.1,0.6V278.3z"/>
		<path d="M560,276.3l-2.3-5c0,0-1.6-1.7-4.5-1.7c-4.2,0-6.9,3.7-6.9,9.2c0,5.3,2.5,9.2,7.3,9.2c5.3,0,7.1-5.2,7.2-5.4
			c-0.1,0.3-1.4,7.3-8.1,7.3c-5.8,0-9.8-4.4-9.8-10.5c0-6.7,4.1-10.8,9.8-10.8c3.6,0,5.5,1.7,5.5,1.7l1.9-1.7V276.3z"/>
		<path d="M587.7,270.9v16.9l3.1,1.7h-9.2l3.1-1.7v-8.3h-9.5v8.3l3.1,1.7h-9.2l3.1-1.7v-16.9l-3.1-1.7h9.2l-3.1,1.7v7.5h9.5v-7.5
			l-3.1-1.7h9.2L587.7,270.9z"/>
	</g>
</g>
</svg>
