<?xml version="1.0" encoding="UTF-8"?>
<svg width="108px" height="120px" viewBox="0 0 108 120" version="1.1" xmlns="http://www.w3.org/2000/svg" xmlns:xlink="http://www.w3.org/1999/xlink">
    <!-- Generator: Sketch 49 (51002) - http://www.bohemiancoding.com/sketch -->
    <title>almighty</title>
    <desc>Created with Sketch.</desc>
    <defs></defs>
    <g id="Page-1" stroke="none" stroke-width="1" fill="none" fill-rule="evenodd">
        <g id="SCENE-2" transform="translate(-673.000000, -459.000000)" fill="#FFFFFF" fill-rule="nonzero">
            <g id="almighty" transform="translate(673.000000, 459.000000)">
                <path d="M83.782298,6.33315008 C86.8169324,7.25673447 87.6085761,7.52061572 90.5112699,8.84002199 C90.5112699,8.84002199 90.5112699,8.84002199 90.5112699,8.84002199 C90.5112699,8.84002199 90.5112699,8.84002199 90.5112699,8.84002199 C90.6432106,8.84002199 90.7751512,8.97196262 90.9070918,8.97196262 C91.4348543,8.97196262 91.9626168,8.44420011 91.9626168,7.9164376 C91.9626168,7.52061572 91.6987356,7.12479384 91.3029137,6.99285322 C88.4002199,5.80538758 87.3446949,5.4095657 84.3100605,4.48598131 C84.1781198,4.48598131 84.0461792,4.48598131 84.0461792,4.48598131 C83.5184167,4.48598131 82.9906542,5.01374382 82.9906542,5.54150632 C82.9906542,5.80538758 83.2545355,6.20120946 83.782298,6.33315008 Z" id="XMLID_37_"></path>
                <path d="M67.0918087,2.15327103 C69.3347993,2.42242991 71.57779,2.82616822 73.8207806,3.36448598 C73.9527213,3.36448598 73.9527213,3.36448598 74.0846619,3.36448598 C74.6124244,3.36448598 75.1401869,2.82616822 75.1401869,2.28785047 C75.1401869,1.74953271 74.744365,1.34579439 74.2166025,1.21121495 C74.2166025,1.21121495 74.2166025,1.21121495 74.2166025,1.21121495 C71.9736119,0.807476636 69.7306212,0.403738318 67.3556899,0 C67.3556899,0 67.3556899,0 67.3556899,0 C67.3556899,0 67.2237493,0 67.2237493,0 C67.2237493,0 67.2237493,0 67.2237493,0 C67.2237493,0 67.2237493,0 67.2237493,0 C66.6959868,0 66.1682243,0.538317757 66.1682243,1.07663551 C66.1682243,1.61495327 66.5640462,2.01869159 67.0918087,2.15327103 Z" id="XMLID_36_"></path>
                <path d="M66.8692323,9.94052676 C66.8692323,9.94052676 66.8692323,9.94052676 66.8692323,9.94052676 C69.2704772,10.3228547 71.5383196,10.7051827 73.806162,11.2149533 C73.806162,11.2149533 73.806162,11.2149533 73.9395645,11.2149533 C73.9395645,11.2149533 74.072967,11.2149533 74.072967,11.2149533 C74.6065769,11.2149533 75.1401869,10.7051827 75.1401869,10.1954121 L75.1401869,7.90144435 C75.1401869,7.39167375 74.7399794,7.00934579 74.3397719,6.88190314 C74.3397719,6.88190314 74.3397719,6.88190314 74.3397719,6.88190314 C72.0719295,6.37213254 69.6706846,5.98980459 67.4028422,5.60747664 C67.4028422,5.60747664 67.4028422,5.60747664 67.4028422,5.60747664 C67.4028422,5.60747664 67.4028422,5.60747664 67.4028422,5.60747664 C67.4028422,5.60747664 67.4028422,5.60747664 67.4028422,5.60747664 C67.4028422,5.60747664 67.2694397,5.60747664 67.2694397,5.60747664 C66.7358298,5.60747664 66.2022198,6.11724724 66.2022198,6.62701784 L66.2022198,8.92098556 C66.0688173,9.43075616 66.3356223,9.81308411 66.8692323,9.94052676 Z" id="XMLID_35_"></path>
                <path d="M67.0918087,23.2309746 C67.0918087,23.2309746 67.0918087,23.2309746 67.0918087,23.2309746 C69.3347993,23.5914553 71.57779,24.0720961 73.8207806,24.6728972 C73.9527213,24.6728972 74.0846619,24.6728972 74.0846619,24.6728972 C74.6124244,24.6728972 75.1401869,24.1922563 75.1401869,23.7116155 C75.1401869,23.7116155 75.1401869,23.7116155 75.1401869,23.7116155 C75.1401869,23.7116155 75.1401869,23.7116155 75.1401869,23.7116155 L75.1401869,16.8624833 C75.1401869,16.3818425 74.8763057,16.0213618 74.3485432,15.9012016 C74.3485432,15.9012016 74.3485432,15.9012016 74.3485432,15.9012016 C74.3485432,15.9012016 74.3485432,15.9012016 74.3485432,15.9012016 C74.3485432,15.9012016 74.3485432,15.9012016 74.3485432,15.9012016 C72.1055525,15.4205607 69.7306212,14.9399199 67.3556899,14.5794393 C67.3556899,14.5794393 67.3556899,14.5794393 67.3556899,14.5794393 C67.3556899,14.5794393 67.3556899,14.5794393 67.2237493,14.5794393 C66.6959868,14.5794393 66.1682243,15.0600801 66.1682243,15.540721 L66.1682243,22.2696929 C66.1682243,22.2696929 66.1682243,22.2696929 66.1682243,22.2696929 C66.3001649,22.7503338 66.6959868,23.1108144 67.0918087,23.2309746 Z" id="XMLID_34_"></path>
                <path d="M99.2193513,12.9672897 C99.2193513,12.9672897 99.2193513,12.9672897 99.2193513,12.9672897 C101.594283,14.135514 103.837273,15.3037383 105.948323,16.588785 C106.080264,16.7056075 106.344145,16.8224299 106.608026,16.8224299 C107.135789,16.8224299 107.663551,16.3551402 107.663551,15.8878505 C107.663551,15.5373832 107.39967,15.1869159 107.135789,15.0700935 C104.892798,13.7850467 102.649808,12.6168224 100.406817,11.4485981 C100.274876,11.3317757 100.010995,11.2149533 99.7471138,11.2149533 C99.2193513,11.2149533 98.6915888,11.682243 98.6915888,12.1495327 C98.6915888,12.5 98.95547,12.8504673 99.2193513,12.9672897 Z" id="XMLID_33_"></path>
                <path d="M107.220694,22.3684547 C107.220694,22.3684547 107.220694,22.3684547 107.220694,22.3684547 C104.990005,20.8936116 102.628099,19.4187684 100.39741,18.0668288 C100.39741,18.0668288 100.39741,18.0668288 100.266193,18.0668288 C100.134976,17.9439252 100.003759,17.9439252 99.7413248,17.9439252 C99.2164568,17.9439252 98.6915888,18.4355396 98.6915888,18.927154 L98.6915888,21.5081296 C98.6915888,21.8768404 98.9540228,22.1226475 99.2164568,22.3684547 C99.2164568,22.3684547 99.2164568,22.3684547 99.2164568,22.3684547 C101.578363,23.7203943 103.809052,25.1952375 105.908524,26.6700807 C105.908524,26.6700807 105.908524,26.6700807 105.908524,26.6700807 C106.039741,26.7929843 106.302175,26.9158879 106.564609,26.9158879 C107.089477,26.9158879 107.614345,26.4242735 107.614345,25.9326591 L107.614345,23.2287799 C107.745562,22.8600691 107.614345,22.4913583 107.220694,22.3684547 Z" id="XMLID_32_"></path>
                <path d="M107.143438,31.9061074 C107.143438,31.9061074 107.143438,31.9061074 107.143438,31.9061074 C104.932954,30.20213 102.722471,28.4981526 100.381959,27.0376005 C100.121902,26.9158879 99.9918732,26.9158879 99.7318163,26.9158879 C99.2117026,26.9158879 98.6915888,27.2810259 98.6915888,27.8895892 C98.6915888,27.8895892 98.6915888,27.8895892 98.6915888,27.8895892 L98.6915888,36.1660509 C98.6915888,36.5311889 98.8216172,36.7746142 99.2117026,37.0180396 C101.552215,38.722017 103.762698,40.547707 105.843153,42.3733971 C105.973182,42.6168224 106.233239,42.6168224 106.623324,42.6168224 C107.143438,42.6168224 107.663551,42.1299717 107.663551,41.6431211 L107.663551,32.6363834 C107.533523,32.3929581 107.403495,32.1495327 107.143438,31.9061074 Z" id="XMLID_31_"></path>
                <path d="M83.6503573,14.1789052 C83.6503573,14.1789052 83.6503573,14.1789052 83.6503573,14.1789052 C86.1572292,15.0200267 88.1363386,15.740988 90.5112699,16.7022697 C90.5112699,16.7022697 90.5112699,16.7022697 90.5112699,16.7022697 C90.5112699,16.7022697 90.5112699,16.7022697 90.5112699,16.7022697 C90.5112699,16.7022697 90.5112699,16.7022697 90.5112699,16.7022697 C90.6432106,16.7022697 90.7751512,16.8224299 90.9070918,16.8224299 C91.4348543,16.8224299 91.9626168,16.3417891 91.9626168,15.8611482 L91.9626168,13.4579439 C91.9626168,13.0974633 91.6987356,12.7369826 91.3029137,12.6168224 C91.3029137,12.6168224 91.3029137,12.6168224 91.3029137,12.6168224 C88.9279824,11.6555407 86.948873,10.9345794 84.4420011,10.2136182 C84.4420011,10.2136182 84.4420011,10.2136182 84.4420011,10.2136182 C84.3100605,10.2136182 84.1781198,10.0934579 84.0461792,10.0934579 C83.5184167,10.0934579 82.9906542,10.5740988 82.9906542,11.0547397 L82.9906542,13.3377837 C82.9906542,13.6982644 83.2545355,14.058745 83.6503573,14.1789052 Z" id="XMLID_30_"></path>
                <path d="M83.6503573,27.1046544 C83.6503573,27.1046544 83.6503573,27.1046544 83.6503573,27.1046544 C86.0252886,28.0817988 88.2682793,29.0589433 90.3793293,30.1582308 C90.3793293,30.1582308 90.3793293,30.1582308 90.3793293,30.1582308 C90.5112699,30.2803738 90.6432106,30.2803738 90.9070918,30.2803738 C91.4348543,30.2803738 91.9626168,29.7918016 91.9626168,29.3032294 C91.9626168,29.3032294 91.9626168,29.3032294 91.9626168,29.3032294 L91.9626168,21.73036 C91.9626168,21.73036 91.9626168,21.73036 91.9626168,21.73036 C91.9626168,21.73036 91.9626168,21.73036 91.9626168,21.73036 C91.9626168,21.3639308 91.6987356,20.9975016 91.3029137,20.8753586 C89.3238043,20.0203572 86.6849918,18.9210697 84.4420011,18.0660683 C84.4420011,18.0660683 84.4420011,18.0660683 84.4420011,18.0660683 C84.4420011,18.0660683 84.4420011,18.0660683 84.4420011,18.0660683 C84.4420011,18.0660683 84.4420011,18.0660683 84.4420011,18.0660683 C84.3100605,18.0660683 84.1781198,17.9439252 84.0461792,17.9439252 C83.5184167,17.9439252 82.9906542,18.4324975 82.9906542,18.9210697 L82.9906542,26.249653 C82.9906542,26.249653 82.9906542,26.249653 82.9906542,26.249653 C82.9906542,26.249653 82.9906542,26.249653 82.9906542,26.249653 C82.9906542,26.6160822 83.2545355,26.8603683 83.6503573,27.1046544 Z" id="XMLID_29_"></path>
                <path d="M51.4926569,10.0934579 C51.4926569,10.0934579 51.4926569,10.0934579 51.4926569,10.0934579 C51.4926569,10.0934579 51.4926569,10.0934579 51.4926569,10.0934579 C52.6461949,10.0934579 53.799733,9.96528705 54.953271,9.96528705 C56.1068091,9.96528705 57.2603471,9.96528705 58.4138852,10.0934579 C58.4138852,10.0934579 58.4138852,10.0934579 58.4138852,10.0934579 C58.4138852,10.0934579 58.4138852,10.0934579 58.4138852,10.0934579 C58.9265688,10.0934579 59.4392523,9.58077437 59.4392523,9.06809079 L59.4392523,6.76101469 C59.4392523,6.24833111 59.0547397,5.73564753 58.5420561,5.73564753 C58.5420561,5.73564753 58.5420561,5.73564753 58.5420561,5.73564753 C57.388518,5.73564753 56.23498,5.60747664 54.953271,5.60747664 C53.6715621,5.60747664 52.518024,5.60747664 51.364486,5.73564753 C51.364486,5.73564753 51.364486,5.73564753 51.364486,5.73564753 C50.8518024,5.73564753 50.4672897,6.24833111 50.4672897,6.76101469 L50.4672897,9.06809079 C50.4672897,9.70894526 50.8518024,10.0934579 51.4926569,10.0934579 Z" id="XMLID_28_"></path>
                <path d="M18.9994502,8.97196262 C19.1313909,8.97196262 19.2633315,8.97196262 19.3952721,8.84735202 C19.3952721,8.84735202 19.3952721,8.84735202 19.3952721,8.84735202 C19.3952721,8.84735202 19.3952721,8.84735202 19.3952721,8.84735202 C22.2979659,7.7258567 23.0896097,7.47663551 26.1242441,6.47975078 C26.520066,6.35514019 26.9158879,5.98130841 26.9158879,5.48286604 C26.9158879,4.98442368 26.3881253,4.48598131 25.8603628,4.48598131 C25.7284222,4.48598131 25.5964816,4.48598131 25.5964816,4.48598131 C22.5618472,5.35825545 21.5063222,5.73208723 18.6036284,6.85358255 C18.2078065,6.97819315 17.9439252,7.35202492 17.9439252,7.7258567 C17.9439252,8.47352025 18.3397471,8.97196262 18.9994502,8.97196262 Z" id="XMLID_27_"></path>
                <path d="M33.5788895,3.36448598 C33.7108301,3.36448598 33.8427708,3.36448598 33.8427708,3.36448598 C36.0857614,2.82616822 38.3287521,2.55700935 40.5717427,2.15327103 C41.0995052,2.15327103 41.4953271,1.61495327 41.4953271,1.07663551 C41.4953271,0.538317757 40.9675646,0 40.4398021,0 C40.4398021,0 40.4398021,0 40.4398021,0 C40.4398021,0 40.4398021,0 40.4398021,0 C40.4398021,0 40.3078615,0 40.3078615,0 C40.3078615,0 40.3078615,0 40.3078615,0 C38.0648708,0.269158879 35.6899395,0.672897196 33.4469489,1.21121495 C33.4469489,1.21121495 33.4469489,1.21121495 33.4469489,1.21121495 C32.9191864,1.34579439 32.5233645,1.74953271 32.5233645,2.28785047 C32.5233645,2.82616822 32.9191864,3.36448598 33.5788895,3.36448598 Z" id="XMLID_26_"></path>
                <path d="M33.5946436,11.2149533 C33.5946436,11.2149533 33.7285535,11.2149533 33.7285535,11.2149533 C33.7285535,11.2149533 33.7285535,11.2149533 33.7285535,11.2149533 C33.7285535,11.2149533 33.7285535,11.2149533 33.7285535,11.2149533 C33.7285535,11.2149533 33.7285535,11.2149533 33.8624634,11.2149533 C36.1389315,10.7051827 38.4153996,10.3228547 40.6918678,9.94052676 C40.6918678,9.94052676 40.6918678,9.94052676 40.6918678,9.94052676 C41.2275073,9.81308411 41.4953271,9.43075616 41.4953271,8.92098556 L41.4953271,6.62701784 C41.4953271,6.11724724 40.9596875,5.60747664 40.424048,5.60747664 C40.424048,5.60747664 40.2901381,5.60747664 40.2901381,5.60747664 C40.2901381,5.60747664 40.2901381,5.60747664 40.2901381,5.60747664 C40.2901381,5.60747664 40.2901381,5.60747664 40.2901381,5.60747664 C40.2901381,5.60747664 40.2901381,5.60747664 40.2901381,5.60747664 C37.8797601,5.98980459 35.603292,6.37213254 33.3268238,6.88190314 C33.3268238,6.88190314 33.3268238,6.88190314 33.3268238,6.88190314 C32.9250942,7.00934579 32.5233645,7.39167375 32.5233645,7.90144435 L32.5233645,10.1954121 C32.5233645,10.7051827 32.9250942,11.2149533 33.5946436,11.2149533 Z" id="XMLID_25_"></path>
                <path d="M33.5788895,24.6728972 C33.7108301,24.6728972 33.8427708,24.6728972 33.8427708,24.6728972 C36.0857614,24.0720961 38.3287521,23.7116155 40.5717427,23.2309746 C40.5717427,23.2309746 40.5717427,23.2309746 40.5717427,23.2309746 C41.0995052,23.1108144 41.4953271,22.7503338 41.4953271,22.2696929 C41.4953271,22.2696929 41.4953271,22.2696929 41.4953271,22.2696929 L41.4953271,15.540721 C41.4953271,15.0600801 40.9675646,14.5794393 40.4398021,14.5794393 C40.4398021,14.5794393 40.4398021,14.5794393 40.3078615,14.5794393 C40.3078615,14.5794393 40.3078615,14.5794393 40.3078615,14.5794393 C37.9329302,14.9399199 35.6899395,15.4205607 33.3150082,15.9012016 C33.3150082,15.9012016 33.3150082,15.9012016 33.3150082,15.9012016 C33.3150082,15.9012016 33.3150082,15.9012016 33.3150082,15.9012016 C33.3150082,15.9012016 33.3150082,15.9012016 33.3150082,15.9012016 C32.9191864,16.0213618 32.5233645,16.3818425 32.5233645,16.8624833 L32.5233645,23.7116155 C32.5233645,23.7116155 32.5233645,23.7116155 32.5233645,23.7116155 C32.5233645,24.1922563 32.9191864,24.6728972 33.5788895,24.6728972 Z" id="XMLID_24_"></path>
                <path d="M51.3336082,1.12149533 C51.3336082,1.12149533 51.3336082,1.12149533 51.3336082,1.12149533 C52.6409701,1.12149533 53.8175959,1.05552501 54.8634855,1.05552501 C56.0401112,1.05552501 57.0860008,1.05552501 58.2626266,1.05552501 C58.2626266,1.05552501 58.3933628,1.05552501 58.3933628,1.05552501 C58.9163076,1.05552501 59.4392523,0.79164376 59.4392523,0.527762507 C59.4392523,0.263881253 59.0470437,0 58.524099,0 C58.524099,0 58.524099,0 58.524099,0 C58.524099,0 58.524099,0 58.524099,0 C58.524099,0 58.524099,0 58.524099,0 C58.524099,0 58.524099,0 58.524099,0 C57.3474732,0 56.1708474,0 54.9942217,0 C53.8175959,0 52.6409701,0 51.4643444,0 C51.4643444,0 51.4643444,0 51.4643444,0 C51.4643444,0 51.4643444,0 51.4643444,0 C51.4643444,0 51.4643444,0 51.4643444,0 C51.4643444,0 51.4643444,0 51.4643444,0 C50.9413996,0 50.549191,0.263881253 50.549191,0.527762507 C50.2877186,0.857614074 50.6799272,1.12149533 51.3336082,1.12149533 Z" id="XMLID_23_"></path>
                <path d="M51.588785,23.5514019 C51.588785,23.5514019 51.588785,23.5514019 51.588785,23.5514019 C52.834891,23.4250362 53.8317757,23.4250362 54.953271,23.4250362 C56.0747664,23.4250362 57.1962617,23.4250362 58.317757,23.5514019 C58.317757,23.5514019 58.317757,23.5514019 58.4423676,23.5514019 C58.94081,23.5514019 59.4392523,23.0459392 59.4392523,22.5404765 L59.4392523,15.7167303 C59.4392523,15.7167303 59.4392523,15.7167303 59.4392523,15.7167303 C59.4392523,15.7167303 59.4392523,15.7167303 59.4392523,15.7167303 C59.4392523,15.2112676 59.0654206,14.7058049 58.4423676,14.7058049 C58.4423676,14.7058049 58.4423676,14.7058049 58.4423676,14.7058049 C57.3208723,14.7058049 56.1993769,14.5794393 54.953271,14.5794393 C53.7071651,14.5794393 52.7102804,14.5794393 51.4641745,14.7058049 C51.4641745,14.7058049 51.4641745,14.7058049 51.4641745,14.7058049 C50.9657321,14.7058049 50.4672897,15.2112676 50.4672897,15.7167303 C50.4672897,15.7167303 50.4672897,15.7167303 50.4672897,15.7167303 L50.4672897,22.5404765 C50.5919003,23.1723049 50.9657321,23.5514019 51.588785,23.5514019 Z" id="XMLID_22_"></path>
                <path d="M2.17702034,16.8224299 C2.44090159,16.8224299 2.57284222,16.7056075 2.83672347,16.588785 C5.07971413,15.3037383 7.32270478,14.135514 9.56569544,12.9672897 C9.56569544,12.9672897 9.56569544,12.9672897 9.56569544,12.9672897 C9.96151732,12.8504673 10.0934579,12.5 10.0934579,12.1495327 C10.0934579,11.682243 9.56569544,11.2149533 9.03793293,11.2149533 C8.77405168,11.2149533 8.51017042,11.3317757 8.3782298,11.4485981 C6.13523914,12.6168224 3.89224849,13.7850467 1.64925783,15.0700935 C1.38537658,15.1869159 1.12149533,15.5373832 1.12149533,15.8878505 C1.12149533,16.3551402 1.64925783,16.8224299 2.17702034,16.8224299 Z" id="XMLID_21_"></path>
                <path d="M2.29175132,26.9158879 C2.55180821,26.9158879 2.8118651,26.7929843 2.94189354,26.6700807 C2.94189354,26.6700807 2.94189354,26.6700807 2.94189354,26.6700807 C5.15237708,25.1952375 7.36286063,23.7203943 9.57334417,22.3684547 C9.57334417,22.3684547 9.57334417,22.3684547 9.57334417,22.3684547 C9.83340106,22.2455511 10.0934579,21.8768404 10.0934579,21.5081296 L10.0934579,18.927154 C10.0934579,18.4355396 9.57334417,17.9439252 9.05323039,17.9439252 C8.92320195,17.9439252 8.66314506,17.9439252 8.53311662,18.0668288 C8.53311662,18.0668288 8.53311662,18.0668288 8.40308818,18.0668288 C6.06257619,19.4187684 3.85209265,20.770708 1.6416091,22.2455511 C1.6416091,22.2455511 1.6416091,22.2455511 1.6416091,22.2455511 C1.38155221,22.3684547 1.12149533,22.7371655 1.12149533,23.1058763 L1.12149533,25.8097555 C1.25152377,26.4242735 1.77163755,26.9158879 2.29175132,26.9158879 Z" id="XMLID_20_"></path>
                <path d="M2.06343275,44.8598131 C2.32671227,44.8598131 2.58999178,44.7381004 2.8532713,44.6163877 C4.95950741,42.668985 7.19738329,40.9650076 9.56689892,39.2610302 C9.83017843,39.1393175 10.0934579,38.7741795 10.0934579,38.4090415 L10.0934579,30.1325799 C10.0934579,30.1325799 10.0934579,30.1325799 10.0934579,30.1325799 C10.0934579,29.6457292 9.56689892,29.1588785 9.04033989,29.1588785 C8.77706037,29.1588785 8.64542061,29.2805912 8.3821411,29.2805912 C6.01262547,30.7411432 3.7747496,32.4451206 1.53687372,34.149098 C1.53687372,34.149098 1.53687372,34.149098 1.53687372,34.149098 C1.27359421,34.2708107 1.14195445,34.6359487 1.14195445,34.879374 L1.14195445,43.8861117 C1.0103147,44.3729624 1.53687372,44.8598131 2.06343275,44.8598131 Z" id="XMLID_19_"></path>
                <path d="M18.9994502,16.8224299 C19.1313909,16.8224299 19.2633315,16.8224299 19.3952721,16.7022697 C19.3952721,16.7022697 19.3952721,16.7022697 19.3952721,16.7022697 C19.3952721,16.7022697 19.3952721,16.7022697 19.3952721,16.7022697 C19.3952721,16.7022697 19.3952721,16.7022697 19.3952721,16.7022697 C21.7702034,15.740988 23.7493128,15.0200267 26.2561847,14.1789052 C26.2561847,14.1789052 26.2561847,14.1789052 26.2561847,14.1789052 C26.6520066,14.058745 26.9158879,13.6982644 26.9158879,13.3377837 L26.9158879,11.0547397 C26.9158879,10.5740988 26.3881253,10.0934579 25.8603628,10.0934579 C25.7284222,10.0934579 25.5964816,10.0934579 25.464541,10.2136182 C25.464541,10.2136182 25.464541,10.2136182 25.464541,10.2136182 C22.957669,10.9345794 20.846619,11.7757009 18.6036284,12.6168224 C18.6036284,12.6168224 18.6036284,12.6168224 18.6036284,12.6168224 C18.2078065,12.7369826 17.9439252,13.0974633 17.9439252,13.4579439 C17.9439252,13.4579439 17.9439252,13.4579439 17.9439252,13.4579439 L17.9439252,15.8611482 C17.9439252,16.3417891 18.3397471,16.8224299 18.9994502,16.8224299 Z" id="XMLID_18_"></path>
                <path d="M18.9994502,30.2803738 C19.1313909,30.2803738 19.3952721,30.2803738 19.5272128,30.1582308 C19.5272128,30.1582308 19.5272128,30.1582308 19.5272128,30.1582308 C21.7702034,29.0589433 24.0131941,28.0817988 26.2561847,27.1046544 C26.2561847,27.1046544 26.2561847,27.1046544 26.2561847,27.1046544 C26.6520066,26.9825113 26.9158879,26.6160822 26.9158879,26.249653 C26.9158879,26.249653 26.9158879,26.249653 26.9158879,26.249653 C26.9158879,26.249653 26.9158879,26.249653 26.9158879,26.249653 L26.9158879,18.9210697 C26.9158879,18.4324975 26.3881253,17.9439252 25.8603628,17.9439252 C25.7284222,17.9439252 25.5964816,17.9439252 25.464541,18.0660683 C25.464541,18.0660683 25.464541,18.0660683 25.464541,18.0660683 C25.464541,18.0660683 25.464541,18.0660683 25.464541,18.0660683 C25.464541,18.0660683 25.464541,18.0660683 25.464541,18.0660683 C23.2215503,18.9210697 20.5827378,19.8982141 18.6036284,20.8753586 C18.2078065,20.9975016 17.9439252,21.3639308 17.9439252,21.73036 C17.9439252,21.73036 17.9439252,21.73036 17.9439252,21.73036 C17.9439252,21.73036 17.9439252,21.73036 17.9439252,21.73036 L17.9439252,29.3032294 C17.9439252,29.3032294 17.9439252,29.3032294 17.9439252,29.3032294 C17.9439252,29.7918016 18.3397471,30.2803738 18.9994502,30.2803738 Z" id="XMLID_17_"></path>
                <path d="M1.82852499,65.7750307 L1.70662332,66.0163086 C7.43600163,70.6005883 13.6529866,74.3403954 20.2356766,77.23573 C27.9154815,80.6136203 36.0828931,82.7851212 44.4941081,83.6295938 C47.4197481,83.9915106 50.3453881,84.1121495 53.271028,84.1121495 C55.830963,84.1121495 58.390898,83.9915106 60.950833,83.7502327 L62.047948,83.6295938 C70.4591629,82.7851212 78.6265746,80.6136203 86.3063795,77.23573 C92.8890695,74.3403954 99.2279561,70.6005883 104.957334,65.8956697 C105.932548,65.0511971 106.542056,63.7241687 106.542056,62.3971404 L106.542056,55.0381651 C106.542056,54.3143315 105.932548,53.8317757 105.323039,53.8317757 C105.079236,53.8317757 104.713531,53.9524146 104.469728,54.0730536 L104.469728,54.3143315 C98.1308411,60.4669174 90.8167412,65.4131139 82.6493295,68.9116431 C73.3848029,72.8927282 63.0231613,74.9435901 53.271028,74.9435901 C43.5188948,74.9435901 33.1572531,72.7720892 23.8927265,68.9116431 C15.7253149,65.4131139 8.41121495,60.4669174 2.07232832,54.3143315 C1.82852499,54.0730536 1.46281999,53.9524146 1.21901666,53.9524146 C0.487606664,53.9524146 0,54.5556093 0,55.279443 L0,62.5177793 C0,63.8448077 0.60950833,65.0511971 1.58472166,65.8956697 L1.82852499,65.7750307 Z" id="XMLID_16_"></path>
                <path d="M53.7112174,66.1682243 C63.6527453,66.1682243 71.7757009,58.0994794 71.7757009,48.2242991 C71.7757009,43.1662799 69.5934143,38.3491187 65.95627,34.9771059 C63.7739834,32.9298125 60.9855061,31.4846641 58.0757906,30.7620899 C56.6209329,30.4008029 55.2873133,30.2803738 53.8324556,30.2803738 C52.3775978,30.2803738 50.9227401,30.4008029 49.5891205,30.7620899 C46.679405,31.4846641 43.8909277,32.9298125 41.7086411,34.9771059 C37.9502586,38.3491187 35.8892102,43.1662799 35.8892102,48.2242991 C35.767972,58.2199084 43.7696896,66.1682243 53.7112174,66.1682243 Z M49.5891205,39.9146961 C50.9227401,39.312551 52.2563597,38.9512639 53.7112174,38.9512639 C55.1660752,38.9512639 56.6209329,39.312551 57.8333143,39.9146961 C61.1067442,41.4802735 63.1677927,44.7318572 63.1677927,48.3447281 C63.1677927,53.5231763 58.9244576,57.7381923 53.7112174,57.7381923 C48.4979772,57.7381923 44.2546422,53.5231763 44.2546422,48.3447281 C44.2546422,44.7318572 46.3156906,41.4802735 49.5891205,39.9146961 Z" id="XMLID_13_"></path>
                <path d="M88.9872211,118.213547 C89.4754911,117.975354 89.7196262,117.618063 89.7196262,117.022579 C89.7196262,116.665288 89.4754911,116.188901 89.1092886,115.950707 L56.6393286,93.9177901 C55.784856,93.3223058 54.8083158,93.0841121 53.8317757,93.0841121 C52.8552356,93.0841121 51.8786954,93.3223058 51.1462903,93.9177901 L18.5542628,116.069804 C18.1880603,116.307998 17.9439252,116.665288 17.9439252,117.141676 C17.9439252,117.618063 18.3101278,118.09445 18.6763303,118.213547 L18.7983979,118.332644 L18.9204654,118.332644 C20.8735457,118.928128 22.826626,119.404516 24.7797063,119.880903 C25.1459088,120 25.5121114,120 25.8783139,120 C26.8548541,120 27.7093267,119.761806 28.5637994,119.166322 L51.5124928,103.564635 C52.244898,103.088247 53.2214381,102.730957 54.0759107,102.730957 C55.0524509,102.730957 55.9069235,102.969151 56.6393286,103.564635 L79.5880221,119.166322 C80.3204272,119.761806 81.2969674,120 82.2735075,120 C82.6397101,120 83.0059126,120 83.3721152,119.880903 C85.3251955,119.404516 87.2782758,118.809032 89.2313561,118.332644 L88.9872211,118.213547 Z" id="XMLID_7_"></path>
            </g>
        </g>
    </g>
</svg>